<svg xmlns="http://www.w3.org/2000/svg" xmlns:xlink="http://www.w3.org/1999/xlink" xmlns:lucid="lucid" width="1943.08" height="1760"><g transform="translate(0 0)" lucid:page-tab-id=".Q4MUjXso07N"><path d="M0 0h1943.08v1760H0z" fill="#fff"/><path d="M500 185a5 5 0 0 1 5-5h950a5 5 0 0 1 5 5v1370a5 5 0 0 1-5 5H505a5 5 0 0 1-5-5z" stroke="#333" fill-opacity="0"/><use xlink:href="#a" transform="matrix(1,0,0,1,508,188) translate(421.4786783854167 19.014973958333332)"/><use xlink:href="#b" transform="matrix(1,0,0,1,508,188) translate(470.69319661458337 19.014973958333332)"/><path d="M306.72 429.95v-.2A19.75 19.75 0 0 1 326.47 410a19.75 19.75 0 0 1 19.75 19.75 19.75 19.75 0 0 1-19.75 19.75 19.75 19.75 0 0 1-19.75-19.75v-.2" stroke="#000" fill-opacity="0"/><path d="M286.47 415a5 5 0 0 1 5-5h70a5 5 0 0 1 5 5v148a5 5 0 0 1-5 5h-70a5 5 0 0 1-5-5z" fill="none"/><path d="M326.47 449.5v55.3l40 63.2m-40-63.2l-40 63.2m0-98.75h80" stroke="#000" fill="none"/><use xlink:href="#c" transform="matrix(1,0,0,1,206.46954966781595,567.9989633254834) translate(85.94036458333333 18.011979166666666)"/><path d="M300.25 799.95v-.2A19.75 19.75 0 0 1 320 780a19.75 19.75 0 0 1 19.75 19.75A19.75 19.75 0 0 1 320 819.5a19.75 19.75 0 0 1-19.75-19.75v-.2" stroke="#000" fill="#fff"/><path d="M280 785a5 5 0 0 1 5-5h70a5 5 0 0 1 5 5v148a5 5 0 0 1-5 5h-70a5 5 0 0 1-5-5z" fill="none"/><path d="M320 819.5v55.3l40 63.2m-40-63.2L280 938m0-98.75h80" stroke="#000" fill="none"/><use xlink:href="#d" transform="matrix(1,0,0,1,200,938) translate(89.31484375 18.011979166666666)"/><path d="M720 286.47c0 33.14-35.82 60-80 60s-80-26.86-80-60 35.82-60 80-60 80 26.86 80 60z" stroke="#fff" fill="#c3f7c8"/><use xlink:href="#e" transform="matrix(1,0,0,1,584,250.46954966781595) translate(17.322656249999994 32.01197916666666)"/><use xlink:href="#f" transform="matrix(1,0,0,1,584,250.46954966781595) translate(12.926953124999997 52.016666666666666)"/><path d="M327.34 499.66l231.8-212.85M327.35 499.65l-2.6 2.38" stroke="#333" fill="none"/><path d="M559.5 286.46v.64l-.06.07-.64-.7.72-.66z" stroke="#333" stroke-width=".05" fill="#333"/><path d="M327.45 499.85l228.04-69.7M327.46 499.85l-3.36 1.03" stroke="#333" fill="none"/><path d="M555.97 430v.5l-.35.1-.28-.9.65-.2z" stroke="#333" stroke-width=".05" fill="#333"/><path d="M544.7 94.47a8 8 0 0 1 8-8h836.73a8 8 0 0 1 8 8v25.16a8 8 0 0 1-8 8H552.7a8 8 0 0 1-8-8z" stroke="#000" stroke-opacity="0" stroke-width="2" fill="#fff" fill-opacity="0"/><use xlink:href="#g" transform="matrix(1,0,0,1,564.6859541826789,86.46954966781595) translate(272.7123990885417 31.211126302083333)"/><path d="M777.93 126.28h392.43M777.96 126.28h-1.03M1170.34 126.28h1.02" stroke="#a9afb8" stroke-width="2" fill="none"/><path d="M544.7 131.1a8 8 0 0 1 8-8h837.7a8 8 0 0 1 8 8V143a8 8 0 0 1-8 8H552.7a8 8 0 0 1-8-8z" stroke="#000" stroke-opacity="0" stroke-width="2" fill="#fff" fill-opacity="0"/><use xlink:href="#h" transform="matrix(1,0,0,1,564.6859541826793,123.1009783781526) translate(410.31 20.51482367621528)"/><path d="M1613.9 939.95v-.2a19.75 19.75 0 0 1 19.74-19.75 19.75 19.75 0 0 1 19.75 19.75 19.75 19.75 0 0 1-19.76 19.75 19.75 19.75 0 0 1-19.75-19.75v-.2" stroke="#000" fill="#fff"/><path d="M1593.64 925a5 5 0 0 1 5-5h70a5 5 0 0 1 5 5v148a5 5 0 0 1-5 5h-70a5 5 0 0 1-5-5z" fill="none"/><path d="M1633.64 959.5v55.3l40 63.2m-40-63.2l-40 63.2m0-98.75h80" stroke="#000" fill="none"/><use xlink:href="#i" transform="matrix(1,0,0,1,1513.6357725655967,1078) translate(95.09505208333333 18.011979166666666)"/><path d="M716.47 430c0 33.14-35.82 60-80 60s-80-26.86-80-60 35.82-60 80-60 80 26.86 80 60z" stroke="#fff" fill="#c3f7c8"/><use xlink:href="#e" transform="matrix(1,0,0,1,580.4705863423326,393.9989633254834) translate(17.322656249999994 22.009635416666665)"/><use xlink:href="#j" transform="matrix(1,0,0,1,580.4705863423326,393.9989633254834) translate(13.108593749999997 42.01432291666667)"/><use xlink:href="#k" transform="matrix(1,0,0,1,580.4705863423326,393.9989633254834) translate(78.61223958333333 42.01432291666667)"/><use xlink:href="#l" transform="matrix(1,0,0,1,580.4705863423326,393.9989633254834) translate(34.86510416666667 62.019010416666674)"/><path d="M720 573.53c0 33.13-35.82 60-80 60s-80-26.87-80-60c0-33.14 35.82-60 80-60s80 26.86 80 60z" stroke="#fff" fill="#c3f7c8"/><use xlink:href="#e" transform="matrix(1,0,0,1,584,537.5283769831508) translate(17.322656249999994 22.009635416666665)"/><use xlink:href="#m" transform="matrix(1,0,0,1,584,537.5283769831508) translate(18.32773437499999 42.01432291666667)"/><use xlink:href="#n" transform="matrix(1,0,0,1,584,537.5283769831508) translate(73.619140625 42.01432291666667)"/><use xlink:href="#o" transform="matrix(1,0,0,1,584,537.5283769831508) translate(31.095052083333332 62.019010416666674)"/><path d="M720 890c0 33.14-35.82 60-80 60s-80-26.86-80-60 35.82-60 80-60 80 26.86 80 60z" stroke="#fff" fill="#b8f5ed"/><use xlink:href="#p" transform="matrix(1,0,0,1,584,854) translate(34.40091145833333 42.01432291666667)"/><path d="M327.46 500.1l235.2 55.3M327.47 500.12l-3.42-.8" stroke="#333" fill="none"/><path d="M563.34 555.06l-.38.9-.42-.1.22-.93z" stroke="#333" stroke-width=".05" fill="#333"/><path d="M320 779V643.15" stroke="#333" fill="none"/><path d="M320.48 779.56l-.46-.06h-.5v-.5h.96z" stroke="#333" stroke-width=".05" fill="#333"/><path d="M320 621l12.5 21.65h-25z" stroke="#333" fill="#fff"/><path d="M321 859l238.3 25.93M321 859l-3.48-.4" stroke="#333" fill="none"/><path d="M559.83 884.5l-.1.96-.5-.06.1-.94z" stroke="#333" stroke-width=".05" fill="#333"/><path d="M320.92 859.46l255.05 159.68M320.94 859.46l-2.98-1.86" stroke="#333" fill="none"/><path d="M576.73 1019.06l-.68.7-.34-.23.5-.8z" stroke="#333" stroke-width=".05" fill="#333"/><path d="M320.74 860.23l287.73 523.6M320.75 860.24l-1.7-3.08" stroke="#333" fill="none"/><path d="M609.13 1384.04l-.42.23-.45.14-.2-.35.83-.46z" stroke="#333" stroke-width=".05" fill="#333"/><path d="M720 1440c0 33.14-35.82 60-80 60s-80-26.86-80-60 35.82-60 80-60 80 26.86 80 60z" stroke="#fff" fill="#b8f5ed"/><use xlink:href="#q" transform="matrix(1,0,0,1,584,1404) translate(17.528515624999997 32.01197916666666)"/><use xlink:href="#r" transform="matrix(1,0,0,1,584,1404) translate(32.410937499999996 52.016666666666666)"/><path d="M720 1260c0 33.14-35.82 60-80 60s-80-26.86-80-60 35.82-60 80-60 80 26.86 80 60z" stroke="#fff" fill="#b8f5ed"/><use xlink:href="#e" transform="matrix(1,0,0,1,584,1224) translate(17.322656249999994 22.009635416666665)"/><use xlink:href="#s" transform="matrix(1,0,0,1,584,1224) translate(31.676302083333333 42.01432291666667)"/><use xlink:href="#t" transform="matrix(1,0,0,1,584,1224) translate(23.401562499999997 62.019010416666674)"/><path d="M940 780c0 33.14-35.82 60-80 60s-80-26.86-80-60 35.82-60 80-60 80 26.86 80 60z" stroke="#fff" fill="#b8f5ed"/><use xlink:href="#u" transform="matrix(1,0,0,1,804,744) translate(7.150781249999994 32.01197916666666)"/><use xlink:href="#v" transform="matrix(1,0,0,1,804,744) translate(50.07447916666666 32.01197916666666)"/><use xlink:href="#w" transform="matrix(1,0,0,1,804,744) translate(32.74596354166667 52.016666666666666)"/><path d="M940 1056.47c0 33.14-35.82 60-80 60s-80-26.86-80-60 35.82-60 80-60 80 26.86 80 60z" stroke="#fff" fill="#b8f5ed"/><use xlink:href="#x" transform="matrix(1,0,0,1,804,1020.4705863423326) translate(30.267578125 22.009635416666665)"/><use xlink:href="#y" transform="matrix(1,0,0,1,804,1020.4705863423326) translate(3.5825520833333258 42.01432291666667)"/><use xlink:href="#z" transform="matrix(1,0,0,1,804,1020.4705863423326) translate(82.13203125 42.01432291666667)"/><use xlink:href="#A" transform="matrix(1,0,0,1,804,1020.4705863423326) translate(31.490625 62.019010416666674)"/><path d="M320.8 859.9l276.64 348.22M320.82 859.9l-2.2-2.74" stroke="#333" fill="none"/><path d="M598.2 1208.32l-.9.4-.24-.3.75-.6z" stroke="#333" stroke-width=".05" fill="#333"/><path d="M980 1320c0 33.14-35.82 60-80 60s-80-26.86-80-60 35.82-60 80-60 80 26.86 80 60z" stroke="#fff" fill="#b8f5ed"/><use xlink:href="#B" transform="matrix(1,0,0,1,844,1284) translate(33.06080729166666 32.01197916666666)"/><use xlink:href="#C" transform="matrix(1,0,0,1,844,1284) translate(17.48815104166667 52.016666666666666)"/><path d="M1240 1320c0 33.14-35.82 60-80 60s-80-26.86-80-60 35.82-60 80-60 80 26.86 80 60z" fill="#b8f5ed"/><path d="M1239.5 1320a.5.5 0 0 1 .5-.5.5.5 0 0 1 .5.5.5.5 0 0 1-.5.5.5.5 0 0 1-.5-.5m-.06 2a.5.5 0 0 1 .5-.5.5.5 0 0 1 .5.5.5.5 0 0 1-.5.5.5.5 0 0 1-.5-.5m-.14 2.02a.5.5 0 0 1 .5-.5.5.5 0 0 1 .5.5.5.5 0 0 1-.5.5.5.5 0 0 1-.5-.5m-.2 2a.5.5 0 0 1 .5-.5.5.5 0 0 1 .5.5.5.5 0 0 1-.5.5.5.5 0 0 1-.5-.5m-.32 1.98a.5.5 0 0 1 .5-.5.5.5 0 0 1 .5.5.5.5 0 0 1-.5.5.5.5 0 0 1-.5-.5m-.4 1.97a.5.5 0 0 1 .5-.5.5.5 0 0 1 .5.5.5.5 0 0 1-.5.5.5.5 0 0 1-.5-.5m-.47 1.95a.5.5 0 0 1 .5-.5.5.5 0 0 1 .5.5.5.5 0 0 1-.5.5.5.5 0 0 1-.5-.5m-.55 1.93a.5.5 0 0 1 .5-.5.5.5 0 0 1 .5.5.5.5 0 0 1-.5.5.5.5 0 0 1-.5-.5m-.66 1.9a.5.5 0 0 1 .5-.5.5.5 0 0 1 .5.5.5.5 0 0 1-.5.5.5.5 0 0 1-.5-.5m-.72 1.88a.5.5 0 0 1 .5-.5.5.5 0 0 1 .5.5.5.5 0 0 1-.5.5.5.5 0 0 1-.5-.5m-.8 1.84a.5.5 0 0 1 .5-.5.5.5 0 0 1 .5.5.5.5 0 0 1-.5.5.5.5 0 0 1-.5-.5m-.88 1.8a.5.5 0 0 1 .5-.5.5.5 0 0 1 .5.5.5.5 0 0 1-.5.5.5.5 0 0 1-.5-.5m-.93 1.8v-.02a.5.5 0 0 1 .5-.5.5.5 0 0 1 .5.5.5.5 0 0 1-.5.5.5.5 0 0 1-.5-.5m-1.02 1.74v-.02a.5.5 0 0 1 .5-.5.5.5 0 0 1 .5.5.5.5 0 0 1-.5.5.5.5 0 0 1-.5-.5m-1.07 1.7a.5.5 0 0 1 .5-.5.5.5 0 0 1 .5.5.5.5 0 0 1-.5.5.5.5 0 0 1-.5-.5m-1.13 1.67a.5.5 0 0 1 .5-.5.5.5 0 0 1 .5.5.5.5 0 0 1-.5.5.5.5 0 0 1-.5-.5m-1.2 1.6a.5.5 0 0 1 .5-.5.5.5 0 0 1 .5.5.5.5 0 0 1-.5.5.5.5 0 0 1-.5-.5m-1.23 1.6a.5.5 0 0 1 .5-.5.5.5 0 0 1 .5.5.5.5 0 0 1-.5.5.5.5 0 0 1-.5-.5m-1.32 1.52a.5.5 0 0 1 .5-.5.5.5 0 0 1 .5.5.5.5 0 0 1-.5.5.5.5 0 0 1-.5-.5m-1.32 1.5a.5.5 0 0 1 .5-.5.5.5 0 0 1 .5.5.5.5 0 0 1-.5.5.5.5 0 0 1-.5-.5m-1.42 1.43a.5.5 0 0 1 .5-.5.5.5 0 0 1 .5.5.5.5 0 0 1-.5.5.5.5 0 0 1-.5-.5m-1.4 1.43a.5.5 0 0 1 .5-.5.5.5 0 0 1 .5.5.5.5 0 0 1-.5.5.5.5 0 0 1-.5-.5m-1.5 1.33a.5.5 0 0 1 .5-.5.5.5 0 0 1 .5.5.5.5 0 0 1-.5.5.5.5 0 0 1-.5-.5m-1.52 1.34a.5.5 0 0 1 .5-.5.5.5 0 0 1 .5.5.5.5 0 0 1-.5.5.5.5 0 0 1-.5-.5m-1.57 1.25a.5.5 0 0 1 .5-.5.5.5 0 0 1 .5.5.5.5 0 0 1-.5.5.5.5 0 0 1-.5-.5m-1.58 1.24v-.02a.5.5 0 0 1 .5-.5.5.5 0 0 1 .5.5.5.5 0 0 1-.5.5.5.5 0 0 1-.5-.5m-1.64 1.2v-.02a.5.5 0 0 1 .5-.5.5.5 0 0 1 .5.5.5.5 0 0 1-.5.5.5.5 0 0 1-.5-.5m-1.65 1.14a.5.5 0 0 1 .5-.5.5.5 0 0 1 .5.5.5.5 0 0 1-.5.5.5.5 0 0 1-.5-.5m-1.66 1.12a.5.5 0 0 1 .5-.5.5.5 0 0 1 .5.5.5.5 0 0 1-.5.5.5.5 0 0 1-.5-.5m-1.73 1.03a.5.5 0 0 1 .5-.5.5.5 0 0 1 .5.5.5.5 0 0 1-.5.5.5.5 0 0 1-.5-.5m-1.7 1.03a.5.5 0 0 1 .5-.5.5.5 0 0 1 .5.5.5.5 0 0 1-.5.5.5.5 0 0 1-.5-.5m-1.78.96a.5.5 0 0 1 .5-.5.5.5 0 0 1 .5.5.5.5 0 0 1-.5.5.5.5 0 0 1-.5-.5m-1.78.92a.5.5 0 0 1 .5-.5.5.5 0 0 1 .5.5.5.5 0 0 1-.5.5.5.5 0 0 1-.5-.5m-1.8.92a.5.5 0 0 1 .5-.5.5.5 0 0 1 .5.5.5.5 0 0 1-.5.5.5.5 0 0 1-.5-.5m-1.83.8a.5.5 0 0 1 .5-.5.5.5 0 0 1 .5.5.5.5 0 0 1-.5.5.5.5 0 0 1-.5-.5m-1.83.82a.5.5 0 0 1 .5-.5.5.5 0 0 1 .5.5.5.5 0 0 1-.5.5.5.5 0 0 1-.5-.5m-1.85.77a.5.5 0 0 1 .5-.5.5.5 0 0 1 .5.5.5.5 0 0 1-.5.5.5.5 0 0 1-.5-.5m-1.9.7a.5.5 0 0 1 .5-.5.5.5 0 0 1 .5.5.5.5 0 0 1-.5.5.5.5 0 0 1-.5-.5m-1.87.7v-.02a.5.5 0 0 1 .5-.5.5.5 0 0 1 .5.5.5.5 0 0 1-.5.5.5.5 0 0 1-.5-.5m-1.9.66a.5.5 0 0 1 .5-.5.5.5 0 0 1 .5.5.5.5 0 0 1-.5.5.5.5 0 0 1-.5-.5m-1.93.58a.5.5 0 0 1 .5-.5.5.5 0 0 1 .5.5.5.5 0 0 1-.5.5.5.5 0 0 1-.5-.5m-1.93.57a.5.5 0 0 1 .5-.5.5.5 0 0 1 .5.5.5.5 0 0 1-.5.5.5.5 0 0 1-.5-.5m-1.94.53a.5.5 0 0 1 .5-.5.5.5 0 0 1 .5.5.5.5 0 0 1-.5.5.5.5 0 0 1-.5-.5m-1.96.45a.5.5 0 0 1 .5-.5.5.5 0 0 1 .5.5.5.5 0 0 1-.5.5.5.5 0 0 1-.5-.5m-1.96.45a.5.5 0 0 1 .5-.5.5.5 0 0 1 .5.5.5.5 0 0 1-.5.5.5.5 0 0 1-.5-.5m-1.97.42a.5.5 0 0 1 .5-.5.5.5 0 0 1 .5.5.5.5 0 0 1-.5.5.5.5 0 0 1-.5-.5m-1.98.33a.5.5 0 0 1 .5-.5.5.5 0 0 1 .5.5.5.5 0 0 1-.5.5.5.5 0 0 1-.5-.5m-2 .33a.5.5 0 0 1 .5-.5.5.5 0 0 1 .5.5.5.5 0 0 1-.5.5.5.5 0 0 1-.5-.5m-1.97.32a.5.5 0 0 1 .5-.5.5.5 0 0 1 .5.5.5.5 0 0 1-.5.5.5.5 0 0 1-.5-.5m-2 .2a.5.5 0 0 1 .5-.5.5.5 0 0 1 .5.5.5.5 0 0 1-.5.5.5.5 0 0 1-.5-.5m-2 .2a.5.5 0 0 1 .5-.5.5.5 0 0 1 .5.5.5.5 0 0 1-.5.5.5.5 0 0 1-.5-.5m-2 .2a.5.5 0 0 1 .5-.5.5.5 0 0 1 .5.5.5.5 0 0 1-.5.5.5.5 0 0 1-.5-.5m-2 .12a.5.5 0 0 1 .5-.5.5.5 0 0 1 .5.5.5.5 0 0 1-.5.5.5.5 0 0 1-.5-.5m-2 .08a.5.5 0 0 1 .5-.5.5.5 0 0 1 .5.5.5.5 0 0 1-.5.5.5.5 0 0 1-.5-.5m-2.02.08a.5.5 0 0 1 .5-.5.5.5 0 0 1 .5.5.5.5 0 0 1-.5.5.5.5 0 0 1-.5-.5m-2 .05a.5.5 0 0 1 .5-.5.5.5 0 0 1 .5.5.5.5 0 0 1-.5.5.5.5 0 0 1-.5-.5m-2-.06a.5.5 0 0 1 .5-.5.5.5 0 0 1 .5.5.5.5 0 0 1-.5.5.5.5 0 0 1-.5-.5m-2.02-.06a.5.5 0 0 1 .5-.5.5.5 0 0 1 .5.5.5.5 0 0 1-.5.5.5.5 0 0 1-.5-.5m-2-.06a.5.5 0 0 1 .5-.5.5.5 0 0 1 .5.5.5.5 0 0 1-.5.5.5.5 0 0 1-.5-.5m-2-.15a.5.5 0 0 1 .5-.5.5.5 0 0 1 .5.5.5.5 0 0 1-.5.5.5.5 0 0 1-.5-.5m-2-.18v-.02a.5.5 0 0 1 .5-.5.5.5 0 0 1 .5.5.5.5 0 0 1-.5.5.5.5 0 0 1-.5-.5m-2-.18a.5.5 0 0 1 .5-.5.5.5 0 0 1 .5.5.5.5 0 0 1-.5.5.5.5 0 0 1-.5-.5m-2-.23a.5.5 0 0 1 .5-.5.5.5 0 0 1 .5.5.5.5 0 0 1-.5.5.5.5 0 0 1-.5-.5m-2-.32a.5.5 0 0 1 .5-.5.5.5 0 0 1 .5.5.5.5 0 0 1-.5.5.5.5 0 0 1-.5-.5m-1.97-.3a.5.5 0 0 1 .5-.5.5.5 0 0 1 .5.5.5.5 0 0 1-.5.5.5.5 0 0 1-.5-.5v-.02m-1.98-.32a.5.5 0 0 1 .5-.5.5.5 0 0 1 .5.5.5.5 0 0 1-.5.5.5.5 0 0 1-.5-.5m-1.96-.42a.5.5 0 0 1 .5-.5.5.5 0 0 1 .5.5.5.5 0 0 1-.5.5.5.5 0 0 1-.5-.5v-.02m-1.96-.42a.5.5 0 0 1 .5-.5.5.5 0 0 1 .5.5.5.5 0 0 1-.5.5.5.5 0 0 1-.5-.5m-1.96-.44a.5.5 0 0 1 .5-.5.5.5 0 0 1 .5.5.5.5 0 0 1-.5.5.5.5 0 0 1-.5-.5m-1.93-.56a.5.5 0 0 1 .5-.5.5.5 0 0 1 .5.5.5.5 0 0 1-.5.5.5.5 0 0 1-.5-.5m-1.92-.56a.5.5 0 0 1 .5-.5.5.5 0 0 1 .5.5.5.5 0 0 1-.5.5.5.5 0 0 1-.5-.5m-1.93-.56a.5.5 0 0 1 .5-.5.5.5 0 0 1 .5.5.5.5 0 0 1-.5.5.5.5 0 0 1-.5-.5m-1.9-.67a.5.5 0 0 1 .5-.5.5.5 0 0 1 .5.5.5.5 0 0 1-.5.5.5.5 0 0 1-.5-.5m-1.88-.68a.5.5 0 0 1 .5-.5.5.5 0 0 1 .5.5.5.5 0 0 1-.5.5.5.5 0 0 1-.5-.5m-1.9-.7a.5.5 0 0 1 .5-.5.5.5 0 0 1 .5.5.5.5 0 0 1-.5.5.5.5 0 0 1-.5-.5m-1.84-.78v-.02a.5.5 0 0 1 .5-.5.5.5 0 0 1 .5.5.5.5 0 0 1-.5.5.5.5 0 0 1-.5-.5m-1.84-.8a.5.5 0 0 1 .5-.5.5.5 0 0 1 .5.5.5.5 0 0 1-.5.5.5.5 0 0 1-.5-.5m-1.84-.8v-.02a.5.5 0 0 1 .5-.5.5.5 0 0 1 .5.5.5.5 0 0 1-.5.5.5.5 0 0 1-.5-.5m-1.8-.9a.5.5 0 0 1 .5-.5.5.5 0 0 1 .5.5.5.5 0 0 1-.5.5.5.5 0 0 1-.5-.5m-1.8-.9a.5.5 0 0 1 .5-.5.5.5 0 0 1 .5.5.5.5 0 0 1-.5.5.5.5 0 0 1-.5-.5v-.02m-1.74-.97a.5.5 0 0 1 .5-.5.5.5 0 0 1 .5.5.5.5 0 0 1-.5.5.5.5 0 0 1-.5-.5m-1.73-1.02a.5.5 0 0 1 .5-.5.5.5 0 0 1 .5.5.5.5 0 0 1-.5.5.5.5 0 0 1-.5-.5m-1.74-1.03a.5.5 0 0 1 .5-.5.5.5 0 0 1 .5.5.5.5 0 0 1-.5.5.5.5 0 0 1-.5-.5m-1.66-1.12a.5.5 0 0 1 .5-.5.5.5 0 0 1 .5.5.5.5 0 0 1-.5.5.5.5 0 0 1-.5-.5m-1.67-1.12a.5.5 0 0 1 .5-.5.5.5 0 0 1 .5.5.5.5 0 0 1-.5.5.5.5 0 0 1-.5-.5m-1.62-1.2a.5.5 0 0 1 .5-.5.5.5 0 0 1 .5.5.5.5 0 0 1-.5.5.5.5 0 0 1-.5-.5m-1.58-1.23a.5.5 0 0 1 .5-.5.5.5 0 0 1 .5.5.5.5 0 0 1-.5.5.5.5 0 0 1-.5-.5m-1.55-1.26v-.02a.5.5 0 0 1 .5-.5.5.5 0 0 1 .5.5.5.5 0 0 1-.5.5.5.5 0 0 1-.5-.5m-1.52-1.32a.5.5 0 0 1 .5-.5.5.5 0 0 1 .5.5.5.5 0 0 1-.5.5.5.5 0 0 1-.5-.5m-1.5-1.34a.5.5 0 0 1 .5-.5.5.5 0 0 1 .5.5.5.5 0 0 1-.5.5.5.5 0 0 1-.5-.5m-1.4-1.42a.5.5 0 0 1 .5-.5.5.5 0 0 1 .5.5.5.5 0 0 1-.5.5.5.5 0 0 1-.5-.5m-1.42-1.43a.5.5 0 0 1 .5-.5.5.5 0 0 1 .5.5.5.5 0 0 1-.5.5.5.5 0 0 1-.5-.5m-1.34-1.5a.5.5 0 0 1 .5-.5.5.5 0 0 1 .5.5.5.5 0 0 1-.5.5.5.5 0 0 1-.5-.5m-1.3-1.53a.5.5 0 0 1 .5-.5.5.5 0 0 1 .5.5.5.5 0 0 1-.5.5.5.5 0 0 1-.5-.5m-1.25-1.58a.5.5 0 0 1 .5-.5.5.5 0 0 1 .5.5.5.5 0 0 1-.5.5.5.5 0 0 1-.5-.5m-1.2-1.6v-.02a.5.5 0 0 1 .5-.5.5.5 0 0 1 .5.5.5.5 0 0 1-.5.5.5.5 0 0 1-.5-.5m-1.13-1.65a.5.5 0 0 1 .5-.5.5.5 0 0 1 .5.5.5.5 0 0 1-.5.5.5.5 0 0 1-.5-.5v-.02m-1.07-1.7a.5.5 0 0 1 .5-.5.5.5 0 0 1 .5.5.5.5 0 0 1-.5.5.5.5 0 0 1-.5-.5m-1.03-1.72a.5.5 0 0 1 .5-.5.5.5 0 0 1 .5.5.5.5 0 0 1-.5.5.5.5 0 0 1-.5-.5m-.92-1.78a.5.5 0 0 1 .5-.5.5.5 0 0 1 .5.5.5.5 0 0 1-.5.5.5.5 0 0 1-.5-.5m-.88-1.8v-.02a.5.5 0 0 1 .5-.5.5.5 0 0 1 .5.5.5.5 0 0 1-.5.5.5.5 0 0 1-.5-.5m-.8-1.83a.5.5 0 0 1 .5-.5.5.5 0 0 1 .5.5.5.5 0 0 1-.5.5.5.5 0 0 1-.5-.5m-.7-1.88a.5.5 0 0 1 .5-.5.5.5 0 0 1 .5.5.5.5 0 0 1-.5.5.5.5 0 0 1-.5-.5m-.66-1.9a.5.5 0 0 1 .5-.5.5.5 0 0 1 .5.5.5.5 0 0 1-.5.5.5.5 0 0 1-.5-.5m-.58-1.93a.5.5 0 0 1 .5-.5.5.5 0 0 1 .5.5.5.5 0 0 1-.5.5.5.5 0 0 1-.5-.5m-.46-1.95a.5.5 0 0 1 .5-.5.5.5 0 0 1 .5.5.5.5 0 0 1-.5.5.5.5 0 0 1-.5-.5m-.4-1.97a.5.5 0 0 1 .5-.5.5.5 0 0 1 .5.5.5.5 0 0 1-.5.5.5.5 0 0 1-.5-.5m-.32-1.98a.5.5 0 0 1 .5-.5.5.5 0 0 1 .5.5.5.5 0 0 1-.5.5.5.5 0 0 1-.5-.5m-.2-2a.5.5 0 0 1 .5-.5.5.5 0 0 1 .5.5.5.5 0 0 1-.5.5.5.5 0 0 1-.5-.5m-.13-2a.5.5 0 0 1 .5-.5.5.5 0 0 1 .5.5.5.5 0 0 1-.5.5.5.5 0 0 1-.5-.5v-.02m-.07-2a.5.5 0 0 1 .5-.5.5.5 0 0 1 .5.5.5.5 0 0 1-.5.5.5.5 0 0 1-.5-.5m.06-2a.5.5 0 0 1 .5-.5.5.5 0 0 1 .5.5.5.5 0 0 1-.5.5.5.5 0 0 1-.5-.5m.14-2a.5.5 0 0 1 .5-.5.5.5 0 0 1 .5.5.5.5 0 0 1-.5.5.5.5 0 0 1-.5-.5v-.02m.2-2a.5.5 0 0 1 .5-.5.5.5 0 0 1 .5.5.5.5 0 0 1-.5.5.5.5 0 0 1-.5-.5m.32-1.97a.5.5 0 0 1 .5-.5.5.5 0 0 1 .5.5.5.5 0 0 1-.5.5.5.5 0 0 1-.5-.5m.4-1.96a.5.5 0 0 1 .5-.5.5.5 0 0 1 .5.5.5.5 0 0 1-.5.5.5.5 0 0 1-.5-.5m.47-1.95a.5.5 0 0 1 .5-.5.5.5 0 0 1 .5.5.5.5 0 0 1-.5.5.5.5 0 0 1-.5-.5v-.02m.55-1.92a.5.5 0 0 1 .5-.5.5.5 0 0 1 .5.5.5.5 0 0 1-.5.5.5.5 0 0 1-.5-.5m.66-1.9a.5.5 0 0 1 .5-.5.5.5 0 0 1 .5.5.5.5 0 0 1-.5.5.5.5 0 0 1-.5-.5m.72-1.88a.5.5 0 0 1 .5-.5.5.5 0 0 1 .5.5.5.5 0 0 1-.5.5.5.5 0 0 1-.5-.5m.8-1.84a.5.5 0 0 1 .5-.5.5.5 0 0 1 .5.5.5.5 0 0 1-.5.5.5.5 0 0 1-.5-.5m.88-1.8a.5.5 0 0 1 .5-.5.5.5 0 0 1 .5.5.5.5 0 0 1-.5.5.5.5 0 0 1-.5-.5v-.02m.93-1.77a.5.5 0 0 1 .5-.5.5.5 0 0 1 .5.5.5.5 0 0 1-.5.5.5.5 0 0 1-.5-.5m1.02-1.73a.5.5 0 0 1 .5-.5.5.5 0 0 1 .5.5.5.5 0 0 1-.5.5.5.5 0 0 1-.5-.5m1.07-1.7a.5.5 0 0 1 .5-.5.5.5 0 0 1 .5.5.5.5 0 0 1-.5.5.5.5 0 0 1-.5-.5m1.13-1.66a.5.5 0 0 1 .5-.5.5.5 0 0 1 .5.5.5.5 0 0 1-.5.5.5.5 0 0 1-.5-.5m1.2-1.6v-.02a.5.5 0 0 1 .5-.5.5.5 0 0 1 .5.5.5.5 0 0 1-.5.5.5.5 0 0 1-.5-.5m1.23-1.58a.5.5 0 0 1 .5-.5.5.5 0 0 1 .5.5.5.5 0 0 1-.5.5.5.5 0 0 1-.5-.5m1.32-1.52a.5.5 0 0 1 .5-.5.5.5 0 0 1 .5.5.5.5 0 0 1-.5.5.5.5 0 0 1-.5-.5m1.32-1.5a.5.5 0 0 1 .5-.5.5.5 0 0 1 .5.5.5.5 0 0 1-.5.5.5.5 0 0 1-.5-.5v-.02m1.42-1.4v-.02a.5.5 0 0 1 .5-.5.5.5 0 0 1 .5.5.5.5 0 0 1-.5.5.5.5 0 0 1-.5-.5m1.4-1.42a.5.5 0 0 1 .5-.5.5.5 0 0 1 .5.5.5.5 0 0 1-.5.5.5.5 0 0 1-.5-.5m1.5-1.33a.5.5 0 0 1 .5-.5.5.5 0 0 1 .5.5.5.5 0 0 1-.5.5.5.5 0 0 1-.5-.5m1.52-1.34a.5.5 0 0 1 .5-.5.5.5 0 0 1 .5.5.5.5 0 0 1-.5.5.5.5 0 0 1-.5-.5m1.57-1.24a.5.5 0 0 1 .5-.5.5.5 0 0 1 .5.5.5.5 0 0 1-.5.5.5.5 0 0 1-.5-.5m1.58-1.24a.5.5 0 0 1 .5-.5.5.5 0 0 1 .5.5.5.5 0 0 1-.5.5.5.5 0 0 1-.5-.5m1.64-1.18a.5.5 0 0 1 .5-.5.5.5 0 0 1 .5.5.5.5 0 0 1-.5.5.5.5 0 0 1-.5-.5m1.65-1.13a.5.5 0 0 1 .5-.5.5.5 0 0 1 .5.5.5.5 0 0 1-.5.5.5.5 0 0 1-.5-.5m1.66-1.1v-.02a.5.5 0 0 1 .5-.5.5.5 0 0 1 .5.5.5.5 0 0 1-.5.5.5.5 0 0 1-.5-.5m1.73-1.02a.5.5 0 0 1 .5-.5.5.5 0 0 1 .5.5.5.5 0 0 1-.5.5.5.5 0 0 1-.5-.5m1.7-1.03a.5.5 0 0 1 .5-.5.5.5 0 0 1 .5.5.5.5 0 0 1-.5.5.5.5 0 0 1-.5-.5m1.78-.96a.5.5 0 0 1 .5-.5.5.5 0 0 1 .5.5.5.5 0 0 1-.5.5.5.5 0 0 1-.5-.5m1.78-.92a.5.5 0 0 1 .5-.5.5.5 0 0 1 .5.5.5.5 0 0 1-.5.5.5.5 0 0 1-.5-.5m1.8-.92a.5.5 0 0 1 .5-.5.5.5 0 0 1 .5.5.5.5 0 0 1-.5.5.5.5 0 0 1-.5-.5m1.83-.8a.5.5 0 0 1 .5-.5.5.5 0 0 1 .5.5.5.5 0 0 1-.5.5.5.5 0 0 1-.5-.5v-.02m1.83-.8a.5.5 0 0 1 .5-.5.5.5 0 0 1 .5.5.5.5 0 0 1-.5.5.5.5 0 0 1-.5-.5m1.85-.76a.5.5 0 0 1 .5-.5.5.5 0 0 1 .5.5.5.5 0 0 1-.5.5.5.5 0 0 1-.5-.5m1.9-.7a.5.5 0 0 1 .5-.5.5.5 0 0 1 .5.5.5.5 0 0 1-.5.5.5.5 0 0 1-.5-.5m1.87-.7a.5.5 0 0 1 .5-.5.5.5 0 0 1 .5.5.5.5 0 0 1-.5.5.5.5 0 0 1-.5-.5m1.9-.64a.5.5 0 0 1 .5-.5.5.5 0 0 1 .5.5.5.5 0 0 1-.5.5.5.5 0 0 1-.5-.5m1.93-.57a.5.5 0 0 1 .5-.5.5.5 0 0 1 .5.5.5.5 0 0 1-.5.5.5.5 0 0 1-.5-.5m1.93-.57a.5.5 0 0 1 .5-.5.5.5 0 0 1 .5.5.5.5 0 0 1-.5.5.5.5 0 0 1-.5-.5m1.94-.53a.5.5 0 0 1 .5-.5.5.5 0 0 1 .5.5.5.5 0 0 1-.5.5.5.5 0 0 1-.5-.5m1.96-.45a.5.5 0 0 1 .5-.5.5.5 0 0 1 .5.5.5.5 0 0 1-.5.5.5.5 0 0 1-.5-.5m1.96-.45a.5.5 0 0 1 .5-.5.5.5 0 0 1 .5.5.5.5 0 0 1-.5.5.5.5 0 0 1-.5-.5m1.97-.42a.5.5 0 0 1 .5-.5.5.5 0 0 1 .5.5.5.5 0 0 1-.5.5.5.5 0 0 1-.5-.5m1.98-.32a.5.5 0 0 1 .5-.5.5.5 0 0 1 .5.5.5.5 0 0 1-.5.5.5.5 0 0 1-.5-.5m2-.33a.5.5 0 0 1 .5-.5.5.5 0 0 1 .5.5.5.5 0 0 1-.5.5.5.5 0 0 1-.5-.5m1.97-.32a.5.5 0 0 1 .5-.5.5.5 0 0 1 .5.5.5.5 0 0 1-.5.5.5.5 0 0 1-.5-.5m2-.2a.5.5 0 0 1 .5-.5.5.5 0 0 1 .5.5.5.5 0 0 1-.5.5.5.5 0 0 1-.5-.5v-.02m2-.18a.5.5 0 0 1 .5-.5.5.5 0 0 1 .5.5.5.5 0 0 1-.5.5.5.5 0 0 1-.5-.5m2-.2a.5.5 0 0 1 .5-.5.5.5 0 0 1 .5.5.5.5 0 0 1-.5.5.5.5 0 0 1-.5-.5m2-.1a.5.5 0 0 1 .5-.5.5.5 0 0 1 .5.5.5.5 0 0 1-.5.5.5.5 0 0 1-.5-.5v-.02m2-.07a.5.5 0 0 1 .5-.5.5.5 0 0 1 .5.5.5.5 0 0 1-.5.5.5.5 0 0 1-.5-.5m2.02-.08a.5.5 0 0 1 .5-.5.5.5 0 0 1 .5.5.5.5 0 0 1-.5.5.5.5 0 0 1-.5-.5m2-.04a.5.5 0 0 1 .5-.5.5.5 0 0 1 .5.5.5.5 0 0 1-.5.5.5.5 0 0 1-.5-.5m2 .07a.5.5 0 0 1 .5-.5.5.5 0 0 1 .5.5.5.5 0 0 1-.5.5.5.5 0 0 1-.5-.5m2.02.06a.5.5 0 0 1 .5-.5.5.5 0 0 1 .5.5.5.5 0 0 1-.5.5.5.5 0 0 1-.5-.5m2 .06a.5.5 0 0 1 .5-.5.5.5 0 0 1 .5.5.5.5 0 0 1-.5.5.5.5 0 0 1-.5-.5v-.02m2 .16a.5.5 0 0 1 .5-.5.5.5 0 0 1 .5.5.5.5 0 0 1-.5.5.5.5 0 0 1-.5-.5m2 .18a.5.5 0 0 1 .5-.5.5.5 0 0 1 .5.5.5.5 0 0 1-.5.5.5.5 0 0 1-.5-.5m2 .2a.5.5 0 0 1 .5-.5.5.5 0 0 1 .5.5.5.5 0 0 1-.5.5.5.5 0 0 1-.5-.5v-.02m2 .24a.5.5 0 0 1 .5-.5.5.5 0 0 1 .5.5.5.5 0 0 1-.5.5.5.5 0 0 1-.5-.5m2 .32a.5.5 0 0 1 .5-.5.5.5 0 0 1 .5.5.5.5 0 0 1-.5.5.5.5 0 0 1-.5-.5m1.97.3a.5.5 0 0 1 .5-.5.5.5 0 0 1 .5.5.5.5 0 0 1-.5.5.5.5 0 0 1-.5-.5m1.98.34a.5.5 0 0 1 .5-.5.5.5 0 0 1 .5.5.5.5 0 0 1-.5.5.5.5 0 0 1-.5-.5m1.96.43a.5.5 0 0 1 .5-.5.5.5 0 0 1 .5.5.5.5 0 0 1-.5.5.5.5 0 0 1-.5-.5m1.96.44a.5.5 0 0 1 .5-.5.5.5 0 0 1 .5.5.5.5 0 0 1-.5.5.5.5 0 0 1-.5-.5m1.96.44a.5.5 0 0 1 .5-.5.5.5 0 0 1 .5.5.5.5 0 0 1-.5.5.5.5 0 0 1-.5-.5m1.93.57a.5.5 0 0 1 .5-.5.5.5 0 0 1 .5.5.5.5 0 0 1-.5.5.5.5 0 0 1-.5-.5m1.92.56a.5.5 0 0 1 .5-.5.5.5 0 0 1 .5.5.5.5 0 0 1-.5.5.5.5 0 0 1-.5-.5m1.93.56v-.02a.5.5 0 0 1 .5-.5.5.5 0 0 1 .5.5.5.5 0 0 1-.5.5.5.5 0 0 1-.5-.5m1.9.68a.5.5 0 0 1 .5-.5.5.5 0 0 1 .5.5.5.5 0 0 1-.5.5.5.5 0 0 1-.5-.5m1.88.68a.5.5 0 0 1 .5-.5.5.5 0 0 1 .5.5.5.5 0 0 1-.5.5.5.5 0 0 1-.5-.5m1.9.7v-.02a.5.5 0 0 1 .5-.5.5.5 0 0 1 .5.5.5.5 0 0 1-.5.5.5.5 0 0 1-.5-.5m1.84.8a.5.5 0 0 1 .5-.5.5.5 0 0 1 .5.5.5.5 0 0 1-.5.5.5.5 0 0 1-.5-.5m1.84.8a.5.5 0 0 1 .5-.5.5.5 0 0 1 .5.5.5.5 0 0 1-.5.5.5.5 0 0 1-.5-.5m1.84.82a.5.5 0 0 1 .5-.5.5.5 0 0 1 .5.5.5.5 0 0 1-.5.5.5.5 0 0 1-.5-.5m1.8.9a.5.5 0 0 1 .5-.5.5.5 0 0 1 .5.5.5.5 0 0 1-.5.5.5.5 0 0 1-.5-.5m1.8.92a.5.5 0 0 1 .5-.5.5.5 0 0 1 .5.5.5.5 0 0 1-.5.5.5.5 0 0 1-.5-.5m1.74.98a.5.5 0 0 1 .5-.5.5.5 0 0 1 .5.5.5.5 0 0 1-.5.5.5.5 0 0 1-.5-.5m1.73 1.02a.5.5 0 0 1 .5-.5.5.5 0 0 1 .5.5.5.5 0 0 1-.5.5.5.5 0 0 1-.5-.5m1.74 1.03v-.02a.5.5 0 0 1 .5-.5.5.5 0 0 1 .5.5.5.5 0 0 1-.5.5.5.5 0 0 1-.5-.5m1.66 1.13a.5.5 0 0 1 .5-.5.5.5 0 0 1 .5.5.5.5 0 0 1-.5.5.5.5 0 0 1-.5-.5m1.67 1.13a.5.5 0 0 1 .5-.5.5.5 0 0 1 .5.5.5.5 0 0 1-.5.5.5.5 0 0 1-.5-.5m1.62 1.2a.5.5 0 0 1 .5-.5.5.5 0 0 1 .5.5.5.5 0 0 1-.5.5.5.5 0 0 1-.5-.5m1.58 1.22a.5.5 0 0 1 .5-.5.5.5 0 0 1 .5.5.5.5 0 0 1-.5.5.5.5 0 0 1-.5-.5m1.55 1.27a.5.5 0 0 1 .5-.5.5.5 0 0 1 .5.5.5.5 0 0 1-.5.5.5.5 0 0 1-.5-.5m1.52 1.33a.5.5 0 0 1 .5-.5.5.5 0 0 1 .5.5.5.5 0 0 1-.5.5.5.5 0 0 1-.5-.5v-.02m1.5 1.36a.5.5 0 0 1 .5-.5.5.5 0 0 1 .5.5.5.5 0 0 1-.5.5.5.5 0 0 1-.5-.5v-.02m1.4 1.43a.5.5 0 0 1 .5-.5.5.5 0 0 1 .5.5.5.5 0 0 1-.5.5.5.5 0 0 1-.5-.5m1.42 1.44a.5.5 0 0 1 .5-.5.5.5 0 0 1 .5.5.5.5 0 0 1-.5.5.5.5 0 0 1-.5-.5m1.34 1.5a.5.5 0 0 1 .5-.5.5.5 0 0 1 .5.5.5.5 0 0 1-.5.5.5.5 0 0 1-.5-.5m1.3 1.53a.5.5 0 0 1 .5-.5.5.5 0 0 1 .5.5.5.5 0 0 1-.5.5.5.5 0 0 1-.5-.5m1.25 1.58a.5.5 0 0 1 .5-.5.5.5 0 0 1 .5.5.5.5 0 0 1-.5.5.5.5 0 0 1-.5-.5m1.2 1.6a.5.5 0 0 1 .5-.5.5.5 0 0 1 .5.5.5.5 0 0 1-.5.5.5.5 0 0 1-.5-.5m1.13 1.67a.5.5 0 0 1 .5-.5.5.5 0 0 1 .5.5.5.5 0 0 1-.5.5.5.5 0 0 1-.5-.5m1.07 1.7a.5.5 0 0 1 .5-.5.5.5 0 0 1 .5.5.5.5 0 0 1-.5.5.5.5 0 0 1-.5-.5m1.03 1.73a.5.5 0 0 1 .5-.5.5.5 0 0 1 .5.5.5.5 0 0 1-.5.5.5.5 0 0 1-.5-.5m.92 1.78a.5.5 0 0 1 .5-.5.5.5 0 0 1 .5.5.5.5 0 0 1-.5.5.5.5 0 0 1-.5-.5m.88 1.8a.5.5 0 0 1 .5-.5.5.5 0 0 1 .5.5.5.5 0 0 1-.5.5.5.5 0 0 1-.5-.5m.8 1.85a.5.5 0 0 1 .5-.5.5.5 0 0 1 .5.5.5.5 0 0 1-.5.5.5.5 0 0 1-.5-.5m.7 1.88a.5.5 0 0 1 .5-.5.5.5 0 0 1 .5.5.5.5 0 0 1-.5.5.5.5 0 0 1-.5-.5m.66 1.9a.5.5 0 0 1 .5-.5.5.5 0 0 1 .5.5.5.5 0 0 1-.5.5.5.5 0 0 1-.5-.5m.58 1.93v-.02a.5.5 0 0 1 .5-.5.5.5 0 0 1 .5.5.5.5 0 0 1-.5.5.5.5 0 0 1-.5-.5m.46 1.96a.5.5 0 0 1 .5-.5.5.5 0 0 1 .5.5.5.5 0 0 1-.5.5.5.5 0 0 1-.5-.5m.4 1.97a.5.5 0 0 1 .5-.5.5.5 0 0 1 .5.5.5.5 0 0 1-.5.5.5.5 0 0 1-.5-.5m.32 2a.5.5 0 0 1 .5-.5.5.5 0 0 1 .5.5.5.5 0 0 1-.5.5.5.5 0 0 1-.5-.5v-.02m.2 2a.5.5 0 0 1 .5-.5.5.5 0 0 1 .5.5.5.5 0 0 1-.5.5.5.5 0 0 1-.5-.5m.13 2.02a.5.5 0 0 1 .5-.5.5.5 0 0 1 .5.5.5.5 0 0 1-.5.5.5.5 0 0 1-.5-.5m.07 2a.5.5 0 0 1 .5-.5.5.5 0 0 1 .5.5.5.5 0 0 1-.5.5.5.5 0 0 1-.5-.5" fill="#fff"/><use xlink:href="#D" transform="matrix(1,0,0,1,1104,1284) translate(17.072395833333324 22.009635416666665)"/><use xlink:href="#E" transform="matrix(1,0,0,1,1104,1284) translate(16.273177083333337 42.01432291666667)"/><use xlink:href="#F" transform="matrix(1,0,0,1,1104,1284) translate(54.78098958333334 42.01432291666667)"/><use xlink:href="#G" transform="matrix(1,0,0,1,1104,1284) translate(6.537239583333331 62.019010416666674)"/><path d="M1079 1320.47h-.5v-.94h.5zM998.58 1330.4l-.7-.4h.94zm-17.07-9.84l-.95-.56.96-.56zm17.32-10.56h-.95l.7-.4z" stroke="#333" stroke-width=".05" fill="#333"/><path d="M1079.5 1320v.4l-.5.07v-.94h.52z" fill="#333"/><path stroke="#333" stroke-width=".05" fill="#333"/><use xlink:href="#H" transform="matrix(1,0,0,1,981.5140625,1309.99765625) translate(0 16.01666666666667)"/><path d="M321 859.4l459.92-66.23M321 859.4l-3.47.5" stroke="#333" fill="none"/><path d="M781.55 793.56l-.58.08-.13-.94.44-.06z" stroke="#333" stroke-width=".05" fill="#333"/><path d="M320.97 859.66l465.4 171.38M320.98 859.66l-3.3-1.2" stroke="#333" fill="none"/><path d="M787.1 1030.8l-.5.83-.4-.15.33-.9z" stroke="#333" stroke-width=".05" fill="#333"/><path d="M819.13 1319.66l-498.26-459.8" stroke="#333" fill="none"/><path d="M819.52 1319.37l-.02.62v.66l-.7-.66.65-.7z" stroke="#333" stroke-width=".05" fill="#333"/><path d="M320.88 859.86l-2.58-2.38" stroke="#333" fill="none"/><path d="M720 1056.47c0 33.14-35.82 60-80 60s-80-26.86-80-60 35.82-60 80-60 80 26.86 80 60z" stroke="#fff" fill="#b8f5ed"/><use xlink:href="#e" transform="matrix(1,0,0,1,584,1020.4705863423326) translate(17.322656249999994 32.01197916666666)"/><use xlink:href="#I" transform="matrix(1,0,0,1,584,1020.4705863423326) translate(35.668359374999994 52.016666666666666)"/><path d="M1335.32 880c0 33.14-35.82 60-80 60s-80-26.86-80-60 35.82-60 80-60 80 26.86 80 60z" stroke="#fff" fill="#cfe4ff"/><g><use xlink:href="#q" transform="matrix(1,0,0,1,1199.3216311022836,844) translate(17.528515624999997 32.01197916666666)"/><use xlink:href="#J" transform="matrix(1,0,0,1,1199.3216311022836,844) translate(22.21080729166666 52.016666666666666)"/></g><path d="M1335.32 1030.3c0 33.14-35.82 60-80 60s-80-26.86-80-60 35.82-60 80-60 80 26.86 80 60z" stroke="#fff" fill="#cfe4ff"/><g><use xlink:href="#K" transform="matrix(1,0,0,1,1199.3216311022836,994.3000286410581) translate(24.777994791666664 32.01197916666666)"/><use xlink:href="#L" transform="matrix(1,0,0,1,1199.3216311022836,994.3000286410581) translate(4.700651041666667 52.016666666666666)"/></g><path d="M1329 905.3l303.66 93.28" stroke="#333" fill="none"/><path d="M1329.16 904.86l-.28.9-.6-.18.5-.84z" stroke="#333" stroke-width=".05" fill="#333"/><path d="M1632.65 998.58l3.35 1.03M1632.64 998.97l-296.54 26.98M1632.63 998.97l3.5-.32" stroke="#333" fill="none"/><path d="M1336.15 1026.42l-.5.04-.1-.94.52-.05z" stroke="#333" stroke-width=".05" fill="#333"/><path d="M720 720c0 33.14-35.82 60-80 60s-80-26.86-80-60 35.82-60 80-60 80 26.86 80 60z" stroke="#fff" fill="#b8f5ed"/><g><use xlink:href="#M" transform="matrix(1,0,0,1,584,684) translate(16.511328125 42.01432291666667)"/></g><path d="M327.38 500.3l1.62 1.13m3.25 2.28l3.25 2.3m3.25 2.28l3.25 2.3m3.25 2.27l3.25 2.28m3.24 2.3l3.25 2.27m3.24 2.28l3.25 2.3m3.24 2.27l3.25 2.3m3.24 2.27l3.24 2.28m3.25 2.3l3.25 2.27m3.25 2.3l3.25 2.27m3.25 2.3l3.25 2.27m3.24 2.3l3.25 2.28m3.25 2.28l3.25 2.28m3.25 2.3l3.25 2.27m3.25 2.3l3.24 2.28m3.25 2.28l3.26 2.3m3.25 2.27l3.26 2.3m3.25 2.27l3.26 2.3m3.25 2.27l3.25 2.28m3.25 2.3l3.25 2.27m3.25 2.28l3.25 2.3m3.25 2.27l3.25 2.3m3.24 2.27l3.24 2.28m3.25 2.3l3.24 2.27m3.25 2.28l3.24 2.28m3.25 2.3l3.23 2.27m3.25 2.28l3.25 2.3m3.25 2.28l3.25 2.28m3.25 2.3l3.25 2.27m3.24 2.3l3.25 2.27m3.25 2.28l3.25 2.3m3.25 2.27l3.25 2.3m3.25 2.27l3.24 2.28m3.26 2.3l3.25 2.27m3.26 2.3l3.25 2.27m3.26 2.28l3.25 2.3m3.25 2.27l3.25 2.28m3.25 2.28l3.25 2.3m3.25 2.27l3.25 2.28m3.25 2.3l1.62 1.14M327.4 500.3l-2.88-2.03" stroke="#333" fill="none"/><path d="M581.57 678.42l-.78.6-.3-.2.53-.78z" stroke="#333" stroke-width=".05" fill="#333"/><path d="M320.96 858.47l250.27-106.25M320.97 858.47l-3.23 1.37" stroke="#333" fill="none"/><path d="M571.77 752.13l.24.27-.6.26-.37-.88.35-.14z" stroke="#333" stroke-width=".05" fill="#333"/><path d="M1632.72 999.5l-1.66 1.13m-3.32 2.27l-3.32 2.26m-3.32 2.26l-3.3 2.26m-3.34 2.27l-3.32 2.26m-3.3 2.27l-3.33 2.26m-3.3 2.26l-3.33 2.26m-3.32 2.26l-3.32 2.26m-3.32 2.26l-3.3 2.26m-3.33 2.27l-3.32 2.26m-3.32 2.26l-3.32 2.25m-3.3 2.26l-3.33 2.28m-3.32 2.26l-3.32 2.26m-3.32 2.26l-3.3 2.26m-3.33 2.27l-3.32 2.25m-3.32 2.26l-3.32 2.27m-3.3 2.26l-3.32 2.27m-3.32 2.26l-3.32 2.26m-3.32 2.26l-3.32 2.27m-3.32 2.26l-3.32 2.27m-3.32 2.26l-3.32 2.26m-3.32 2.26l-3.32 2.26m-3.32 2.26l-3.32 2.26m-3.32 2.26l-3.32 2.27m-3.32 2.26l-3.32 2.26m-3.32 2.25l-3.32 2.26m-3.32 2.28l-3.32 2.26m-3.3 2.26l-3.33 2.26m-3.32 2.27l-3.32 2.26m-3.3 2.25l-3.33 2.26m-3.32 2.27l-3.32 2.27m-3.32 2.26l-3.3 2.26m-3.33 2.26l-3.32 2.26m-3.32 2.26l-3.32 2.27m-3.3 2.27l-3.33 2.26m-3.32 2.26l-3.32 2.26m-3.32 2.26l-3.3 2.26m-3.33 2.26l-3.32 2.26m-3.32 2.27l-3.32 2.26m-3.3 2.26l-3.32 2.25m-3.32 2.26l-3.32 2.28m-3.32 2.26l-3.32 2.26m-3.32 2.26l-3.32 2.26m-3.32 2.27l-3.32 2.25m-3.32 2.26l-3.32 2.27m-3.32 2.26l-3.32 2.27m-3.32 2.26l-3.32 2.26m-3.32 2.26l-3.32 2.26m-3.32 2.27l-3.32 2.27m-3.32 2.26l-3.32 2.26m-3.32 2.26l-3.3 2.26m-3.33 2.26l-3.32 2.26m-3.3 2.26l-3.33 2.27m-3.32 2.26l-3.32 2.26m-3.32 2.25l-3.3 2.26m-3.33 2.28l-3.32 2.26m-3.32 2.26l-3.32 2.26m-3.3 2.26l-3.33 2.27m-3.32 2.25l-3.32 2.26m-3.32 2.27l-3.3 2.27m-3.33 2.26l-3.32 2.26m-3.3 2.26l-3.34 2.26m-3.3 2.27l-3.32 2.26m-3.32 2.27l-1.66 1.13M1632.7 999.5l2.9-1.97" stroke="#333" fill="none"/><path d="M1221.38 1280.4l-.33.2-.74-.64.54-.36z" stroke="#333" stroke-width=".05" fill="#333"/><defs><path fill="#333" d="M42 0l247-1490h468l128 684c15 95 28 294 36 455 61-162 140-361 185-455l352-684h470L1681 0h-307c74-443 123-771 215-1228C1383-726 1213-441 990 0H733c-79-434-155-711-198-1214C473-747 415-431 345 0H42" id="N"/><path fill="#333" d="M552 24C254 24 71-146 71-432c0-377 264-705 643-705 236 0 413 123 413 326 0 251-270 329-766 342-10 155 35 265 213 267 113 0 207-50 245-134l269 36C1015-105 814 24 552 24zM392-650c368-7 456-43 456-146 0-71-63-115-165-115-165 0-251 126-291 261" id="O"/><path fill="#333" d="M419 14C188 14 60-144 103-407l118-711h300L412-459c-23 138 39 222 166 222 125 0 231-84 255-234l107-647h301L1056 0H772l35-232C717-74 589 14 419 14" id="P"/><g id="a"><use transform="matrix(0.010091145833333334,0,0,0.010091145833333334,0,0)" xlink:href="#N"/><use transform="matrix(0.010091145833333334,0,0,0.010091145833333334,19.25390625,0)" xlink:href="#O"/><use transform="matrix(0.010091145833333334,0,0,0.010091145833333334,31.444010416666668,0)" xlink:href="#P"/></g><path fill="#333" d="M42 0l247-1490h305L494-888h649l100-602h306L1302 0H996l106-635H452L347 0H42" id="Q"/><path fill="#333" d="M-51 0l455-574-248-544h316c52 123 108 260 144 394 81-133 184-270 280-394h326L786-570 1053 0H738c-58-135-122-278-164-425C488-279 375-135 274 0H-51" id="R"/><path fill="#333" d="M441 19C184 19 19-186 81-558c63-382 303-574 550-574 189 0 259 113 285 202h10l31-188h299L1071 0H776l29-179h-14C733-87 623 19 441 19zm133-241c154 0 263-135 296-336 34-204-31-334-185-334-159 0-264 139-296 334-33 197 29 336 185 336" id="S"/><g id="b"><use transform="matrix(0.010091145833333334,0,0,0.010091145833333334,0,0)" xlink:href="#Q"/><use transform="matrix(0.010091145833333334,0,0,0.010091145833333334,15.439453125,0)" xlink:href="#O"/><use transform="matrix(0.010091145833333334,0,0,0.010091145833333334,27.2158203125,0)" xlink:href="#R"/><use transform="matrix(0.010091145833333334,0,0,0.010091145833333334,38.79036458333333,0)" xlink:href="#S"/></g><path d="M507 0L206-1490h200c85 478 172 817 237 1337 237-524 428-852 670-1337h202L726 0H507" id="T"/><path d="M66 0l185-1118h180L246 0H66zm307-1301c-71 0-117-55-106-119s74-119 145-119c65 0 117 50 106 118s-78 120-145 120" id="U"/><path d="M451 24C217 22 71-78 61-277l174-29c11 123 90 172 219 172 161 0 280-83 297-181 11-71-30-117-135-143l-179-44c-195-48-280-153-253-316 31-186 223-314 455-314 233 4 337 107 366 275l-165 30c-18-80-65-152-204-152-138 0-256 75-272 174-13 77 32 118 158 149l162 40c195 48 278 154 252 313C904-113 708 24 451 24" id="V"/><path d="M691-1118l-25 154H437L325-290c-17 103 16 144 108 144 23 0 63-6 94-12L538-6c-36 12-87 20-136 20-196 0-290-109-260-290l114-688H88l25-154h169l44-266h180l-44 266h229" id="W"/><path d="M481 24C202 24 45-202 104-557s293-575 571-575c216 0 263 132 291 193h15l29-179h181L1006 0H831l28-173h-21C788-107 693 24 481 24zm56-161c204 0 342-174 383-422s-41-412-245-412c-215 0-350 183-388 412-39 235 39 422 250 422" id="X"/><path d="M356-664L245 0H65l186-1118h173l-32 197c96-152 219-211 366-211 232 0 366 145 319 428L960 0H779l117-701c29-174-48-269-198-269-165 0-310 115-342 306" id="Y"/><path d="M535 24C259 24 94-144 94-427c0-392 272-715 610-715 216 0 356 119 356 305 0 244-237 344-790 350-18 199 49 349 276 352 142 0 260-66 317-173l167 47C947-85 756 24 535 24zM294-623c447-4 586-57 586-218 0-85-78-141-194-141-220 0-342 177-392 359" id="Z"/><g id="c"><use transform="matrix(0.008072916666666667,0,0,0.008072916666666667,0,0)" xlink:href="#T"/><use transform="matrix(0.008072916666666667,0,0,0.008072916666666667,11.407031250000001,0)" xlink:href="#U"/><use transform="matrix(0.008072916666666667,0,0,0.008072916666666667,15.419270833333336,0)" xlink:href="#V"/><use transform="matrix(0.008072916666666667,0,0,0.008072916666666667,24.138020833333336,0)" xlink:href="#U"/><use transform="matrix(0.008072916666666667,0,0,0.008072916666666667,28.15026041666667,0)" xlink:href="#W"/><use transform="matrix(0.008072916666666667,0,0,0.008072916666666667,33.41380208333334,0)" xlink:href="#X"/><use transform="matrix(0.008072916666666667,0,0,0.008072916666666667,43.561458333333334,0)" xlink:href="#Y"/><use transform="matrix(0.008072916666666667,0,0,0.008072916666666667,53.33776041666667,0)" xlink:href="#W"/><use transform="matrix(0.008072916666666667,0,0,0.008072916666666667,58.60130208333334,0)" xlink:href="#Z"/></g><path d="M677 24c-359 0-556-231-505-538l162-976h190L363-516c-36 218 86 364 321 364 246 0 428-159 464-377l159-961h190l-163 989c-51 309-312 525-657 525" id="aa"/><path d="M443 14C219 14 87-123 134-408l117-710h180L317-423c-28 171 49 275 206 275s300-105 332-300l110-670h181L961 0H787l35-209C722-47 590 14 443 14" id="ab"/><path d="M481 24C202 24 45-202 104-557s293-575 571-575c216 0 263 132 291 193h15l29-179h181L1006 0H831l28-173h-21C788-107 693 24 481 24zm56-161c204 0 342-174 383-422s-41-412-245-412c-215 0-350 183-388 412-39 235 39 422 250 422zm124-1145l186-276h201l-240 276H661" id="ac"/><path d="M66 0l185-1118h174l-28 172h12c78-136 219-209 411-185l-30 181c-211-47-398 67-428 250L246 0H66" id="ad"/><path d="M528 24C258 24 94-156 94-433c0-355 229-699 603-699 270 0 436 178 436 458 0 359-234 698-605 698zm4-161c275 0 420-287 420-533 0-170-77-301-260-301-271 0-418 288-418 536 0 168 77 298 258 298" id="ae"/><g id="d"><use transform="matrix(0.008072916666666667,0,0,0.008072916666666667,0,0)" xlink:href="#aa"/><use transform="matrix(0.008072916666666667,0,0,0.008072916666666667,12.295052083333335,0)" xlink:href="#V"/><use transform="matrix(0.008072916666666667,0,0,0.008072916666666667,21.013802083333335,0)" xlink:href="#ab"/><use transform="matrix(0.008072916666666667,0,0,0.008072916666666667,30.798177083333336,0)" xlink:href="#ac"/><use transform="matrix(0.008072916666666667,0,0,0.008072916666666667,40.94583333333334,0)" xlink:href="#ad"/><use transform="matrix(0.008072916666666667,0,0,0.008072916666666667,47.43645833333334,0)" xlink:href="#U"/><use transform="matrix(0.008072916666666667,0,0,0.008072916666666667,51.448697916666674,0)" xlink:href="#ae"/></g><path d="M492-1490L245 0H65l247-1490h180" id="af"/><path d="M33 0l23-134 752-806 2-11H211l27-167h839l-24 143-732 797-2 11h620L912 0H33" id="ag"/><g id="e"><use transform="matrix(0.008072916666666667,0,0,0.008072916666666667,0,0)" xlink:href="#T"/><use transform="matrix(0.008072916666666667,0,0,0.008072916666666667,11.407031250000001,0)" xlink:href="#U"/><use transform="matrix(0.008072916666666667,0,0,0.008072916666666667,15.419270833333336,0)" xlink:href="#V"/><use transform="matrix(0.008072916666666667,0,0,0.008072916666666667,24.138020833333336,0)" xlink:href="#ab"/><use transform="matrix(0.008072916666666667,0,0,0.008072916666666667,33.92239583333334,0)" xlink:href="#X"/><use transform="matrix(0.008072916666666667,0,0,0.008072916666666667,44.07005208333334,0)" xlink:href="#af"/><use transform="matrix(0.008072916666666667,0,0,0.008072916666666667,48.07421875000001,0)" xlink:href="#U"/><use transform="matrix(0.008072916666666667,0,0,0.008072916666666667,52.08645833333334,0)" xlink:href="#ag"/><use transform="matrix(0.008072916666666667,0,0,0.008072916666666667,60.97473958333334,0)" xlink:href="#X"/><use transform="matrix(0.008072916666666667,0,0,0.008072916666666667,71.12239583333334,0)" xlink:href="#ad"/></g><path d="M87 0l247-1490h190L417-846h782l107-644h190L1249 0h-190l113-678H389L277 0H87" id="ah"/><path d="M65 0l186-1118h175l-31 195c80-148 212-215 337-215 153 0 236 96 255 228 75-143 223-228 382-228 199 0 341 131 298 390L1543 0h-181l126-756c27-162-65-218-177-218-160 0-274 111-297 250L894 0H714l128-773c21-127-57-201-174-201-136 0-277 97-307 277L245 0H65" id="ai"/><path d="M-4 418l255-1536h174l-30 179h9c47-68 143-193 355-193 246 0 401 170 401 447 0 348-211 709-568 709-219 0-274-140-300-202h-17l-99 596H-4zm572-555c267 0 411-296 411-543 0-170-78-291-250-291-269 0-405 284-405 542 0 177 81 292 244 292" id="aj"/><path d="M456 442C197 442 73 327 25 209l155-84c33 60 86 160 280 160 184 0 332-89 363-272l37-218-16 4C793-134 707-18 498-18 260-18 96-170 96-443c0-341 216-689 568-689 222 0 274 139 301 198l21-5 30-179h175L999 35c-48 288-275 407-543 407zm75-620c274 0 401-267 401-512 0-170-80-281-247-281-260 0-408 269-408 518 0 167 83 275 254 275" id="ak"/><g id="f"><use transform="matrix(0.008072916666666667,0,0,0.008072916666666667,0,0)" xlink:href="#ah"/><use transform="matrix(0.008072916666666667,0,0,0.008072916666666667,12.286979166666669,0)" xlink:href="#ae"/><use transform="matrix(0.008072916666666667,0,0,0.008072916666666667,22.208593750000002,0)" xlink:href="#ai"/><use transform="matrix(0.008072916666666667,0,0,0.008072916666666667,36.69140624999999,0)" xlink:href="#Z"/><use transform="matrix(0.008072916666666667,0,0,0.008072916666666667,46.209375,0)" xlink:href="#aj"/><use transform="matrix(0.008072916666666667,0,0,0.008072916666666667,56.340885416666666,0)" xlink:href="#X"/><use transform="matrix(0.008072916666666667,0,0,0.008072916666666667,66.48854166666666,0)" xlink:href="#ak"/><use transform="matrix(0.008072916666666667,0,0,0.008072916666666667,76.628125,0)" xlink:href="#Z"/></g><path fill="#a9afb8" d="M659 0H135v-1490h529c448 0 721 280 721 744 0 466-273 746-726 746zM440-263h204c287 0 437-148 437-483 0-333-150-481-435-481H440v964" id="al"/><path fill="#a9afb8" d="M128 0v-1118h300V0H128zm150-1264c-91 0-165-68-165-154 0-85 74-154 165-154 90 0 165 69 165 154 0 86-75 154-165 154" id="am"/><path fill="#a9afb8" d="M440 22C227 22 68-92 68-313c0-250 202-322 422-343 195-21 271-24 271-105 0-95-63-149-175-149-116 0-187 57-211 129l-275-46c57-194 237-305 487-305 240 0 474 108 474 379V0H777v-155h-10C713-51 605 22 440 22zm85-211c140 0 238-93 238-211v-121c-37 26-156 42-222 51-111 16-185 59-185 149 0 87 70 132 169 132" id="an"/><path fill="#a9afb8" d="M625 442c-280 0-454-114-503-274l258-72c28 63 97 128 243 128 153 0 246-69 246-216v-206h-23C805-108 717-16 536-16 284-16 81-191 81-561c0-378 208-571 456-571 188 0 280 113 321 202h13v-188h295V-9c0 303-226 451-541 451zm5-686c153 0 240-119 240-319 0-198-86-329-240-329-158 0-241 137-241 329 0 195 85 319 241 319" id="ao"/><path fill="#a9afb8" d="M128 0v-1118h290v195h12c54-169 184-238 367-200v268c-27-8-86-15-130-15-138 0-239 95-239 234V0H128" id="ap"/><path fill="#a9afb8" d="M128 0v-1118h278l12 217c60-163 185-234 319-234 143 0 236 81 288 251 63-172 205-251 359-251 205 0 357 138 357 381V0h-301v-697c0-126-76-187-177-187-114 0-184 79-184 196V0H789v-705c0-109-72-179-174-179-106 0-187 74-187 208V0H128" id="aq"/><path fill="#a9afb8" d="M750 21c-371 0-615-218-615-544v-967h305v942c0 174 123 299 310 299s309-125 309-299v-942h306v967c0 326-247 544-615 544" id="ar"/><path fill="#a9afb8" d="M786 20C389 20 94-260 94-744c0-487 299-766 692-766 339 0 597 194 641 529h-309c-28-162-156-258-326-258-233 0-388 179-388 495 0 323 157 493 387 493 170 0 298-97 328-259h309c-34 277-266 530-642 530" id="as"/><path fill="#a9afb8" d="M818-733v240H140v-240h678" id="at"/><path fill="#a9afb8" d="M135 0v-1490h468l242 684c30 94 76 293 111 455 34-161 80-360 110-455l238-684h470V0h-307c0-447-3-765 11-1227-122 503-246 788-395 1227H826C676-435 552-717 427-1215c15 453 11 775 11 1215H135" id="au"/><path fill="#a9afb8" d="M633 22C291 22 81-200 81-553c0-345 210-579 537-579 292 0 525 185 525 567v84H378c7 183 109 277 260 277 105 0 184-46 216-132l272 51C1071-99 893 22 633 22zM380-669h474c-15-146-94-237-233-237-143 0-229 99-241 237" id="av"/><path fill="#a9afb8" d="M513 14c-232 0-385-159-385-421v-711h300v659c0 139 76 222 202 222 127 0 217-86 217-234v-647h301V0H864l-4-232C797-74 683 14 513 14" id="aw"/><path fill="#a9afb8" d="M135 0v-1490h305v602h649v-602h306V0h-306v-635H440V0H135" id="ax"/><path fill="#a9afb8" d="M42 0l360-574-338-544h324c72 124 151 261 209 394 58-134 140-271 215-394h318L785-570 1146 0H824c-79-136-169-280-234-425C528-278 439-134 360 0H42" id="ay"/><g id="g"><use transform="matrix(0.011907552083333333,0,0,0.011907552083333333,0,0)" xlink:href="#al"/><use transform="matrix(0.011907552083333333,0,0,0.011907552083333333,17.61126953125,0)" xlink:href="#am"/><use transform="matrix(0.011907552083333333,0,0,0.011907552083333333,24.219960937499998,0)" xlink:href="#an"/><use transform="matrix(0.011907552083333333,0,0,0.011907552083333333,38.37804036458333,0)" xlink:href="#ao"/><use transform="matrix(0.011907552083333333,0,0,0.011907552083333333,53.78641276041665,0)" xlink:href="#ap"/><use transform="matrix(0.011907552083333333,0,0,0.011907552083333333,63.38389973958332,0)" xlink:href="#an"/><use transform="matrix(0.011907552083333333,0,0,0.011907552083333333,77.54197916666666,0)" xlink:href="#aq"/><use transform="matrix(0.011907552083333333,0,0,0.011907552083333333,99.79719401041666,0)" xlink:href="#an"/><use transform="matrix(0.011907552083333333,0,0,0.011907552083333333,113.9552734375,0)" xlink:href="#ar"/><use transform="matrix(0.011907552083333333,0,0,0.011907552083333333,131.80469401041665,0)" xlink:href="#as"/><use transform="matrix(0.011907552083333333,0,0,0.011907552083333333,149.84463541666665,0)" xlink:href="#at"/><use transform="matrix(0.011907552083333333,0,0,0.011907552083333333,161.2520703125,0)" xlink:href="#au"/><use transform="matrix(0.011907552083333333,0,0,0.011907552083333333,183.9716796875,0)" xlink:href="#av"/><use transform="matrix(0.011907552083333333,0,0,0.011907552083333333,198.49889322916667,0)" xlink:href="#aw"/><use transform="matrix(0.011907552083333333,0,0,0.011907552083333333,213.68102213541667,0)" xlink:href="#ax"/><use transform="matrix(0.011907552083333333,0,0,0.011907552083333333,231.89957682291666,0)" xlink:href="#av"/><use transform="matrix(0.011907552083333333,0,0,0.011907552083333333,245.93858072916666,0)" xlink:href="#ay"/><use transform="matrix(0.011907552083333333,0,0,0.011907552083333333,260.0371223958333,0)" xlink:href="#an"/></g><path d="M-41 0l788-1490h220L1268 0h-192l-80-416H383L169 0H-41zm509-582h497c-56-293-77-375-126-756-162 359-224 468-371 756" id="az"/><path d="M492 24C248 24 94-147 94-425c0-352 212-707 569-707 222 0 274 136 303 198h12l92-556h181L1004 0H829l30-173h-19C792-103 700 24 492 24zm32-161c268 0 407-295 407-549 0-175-80-285-247-285-266 0-408 283-408 536 0 174 79 298 248 298" id="aA"/><g id="i"><use transform="matrix(0.008072916666666667,0,0,0.008072916666666667,0,0)" xlink:href="#az"/><use transform="matrix(0.008072916666666667,0,0,0.008072916666666667,11.407031250000001,0)" xlink:href="#aA"/><use transform="matrix(0.008072916666666667,0,0,0.008072916666666667,21.538541666666667,0)" xlink:href="#ai"/><use transform="matrix(0.008072916666666667,0,0,0.008072916666666667,36.02135416666667,0)" xlink:href="#U"/><use transform="matrix(0.008072916666666667,0,0,0.008072916666666667,40.03359375,0)" xlink:href="#Y"/></g><path d="M528 24C258 24 94-156 94-433c0-355 229-699 603-699 270 0 436 178 436 458 0 359-234 698-605 698zm4-161c275 0 420-287 420-533 0-170-77-301-260-301-271 0-418 288-418 536 0 168 77 298 258 298zm115-1145l186-276h201l-240 276H647" id="aB"/><g id="j"><use transform="matrix(0.008072916666666667,0,0,0.008072916666666667,0,0)" xlink:href="#ah"/><use transform="matrix(0.008072916666666667,0,0,0.008072916666666667,12.286979166666669,0)" xlink:href="#U"/><use transform="matrix(0.008072916666666667,0,0,0.008072916666666667,16.29921875,0)" xlink:href="#V"/><use transform="matrix(0.008072916666666667,0,0,0.008072916666666667,25.01796875,0)" xlink:href="#W"/><use transform="matrix(0.008072916666666667,0,0,0.008072916666666667,30.28151041666667,0)" xlink:href="#aB"/><use transform="matrix(0.008072916666666667,0,0,0.008072916666666667,40.203125,0)" xlink:href="#ad"/><use transform="matrix(0.008072916666666667,0,0,0.008072916666666667,46.69375,0)" xlink:href="#U"/><use transform="matrix(0.008072916666666667,0,0,0.008072916666666667,50.705989583333334,0)" xlink:href="#X"/></g><g id="k"><use transform="matrix(0.008072916666666667,0,0,0.008072916666666667,0,0)" xlink:href="#aA"/><use transform="matrix(0.008072916666666667,0,0,0.008072916666666667,10.131510416666668,0)" xlink:href="#X"/></g><path d="M698 20c-339 0-559-226-559-600 0-470 305-930 790-930 306 0 529 181 531 489h-190c-8-202-157-313-348-313-373 0-599 380-599 749 0 281 158 429 382 429 202 0 399-111 474-313h191C1267-166 997 20 698 20" id="aC"/><g id="l"><use transform="matrix(0.008072916666666667,0,0,0.008072916666666667,0,0)" xlink:href="#aC"/><use transform="matrix(0.008072916666666667,0,0,0.008072916666666667,12.069010416666668,0)" xlink:href="#ae"/><use transform="matrix(0.008072916666666667,0,0,0.008072916666666667,21.990625,0)" xlink:href="#aj"/><use transform="matrix(0.008072916666666667,0,0,0.008072916666666667,32.122135416666666,0)" xlink:href="#X"/></g><g id="m"><use transform="matrix(0.008072916666666667,0,0,0.008072916666666667,0,0)" xlink:href="#T"/><use transform="matrix(0.008072916666666667,0,0,0.008072916666666667,11.407031250000001,0)" xlink:href="#U"/><use transform="matrix(0.008072916666666667,0,0,0.008072916666666667,15.419270833333336,0)" xlink:href="#W"/><use transform="matrix(0.008072916666666667,0,0,0.008072916666666667,20.844270833333336,0)" xlink:href="#ad"/><use transform="matrix(0.008072916666666667,0,0,0.008072916666666667,27.334895833333338,0)" xlink:href="#U"/><use transform="matrix(0.008072916666666667,0,0,0.008072916666666667,31.34713541666667,0)" xlink:href="#Y"/><use transform="matrix(0.008072916666666667,0,0,0.008072916666666667,41.12343750000001,0)" xlink:href="#Z"/></g><g id="n"><use transform="matrix(0.008072916666666667,0,0,0.008072916666666667,0,0)" xlink:href="#aA"/><use transform="matrix(0.008072916666666667,0,0,0.008072916666666667,10.131510416666668,0)" xlink:href="#ae"/></g><path d="M592 24c-216 0-276-130-305-197h-18L239 0H65l247-1490h180l-92 551h15c51-63 134-193 344-193 246 0 401 170 401 447 0 348-211 709-568 709zm-24-161c267 0 411-296 411-543 0-170-78-291-250-291-269 0-405 284-405 542 0 177 81 292 244 292" id="aD"/><g id="o"><use transform="matrix(0.008072916666666667,0,0,0.008072916666666667,0,0)" xlink:href="#az"/><use transform="matrix(0.008072916666666667,0,0,0.008072916666666667,11.407031250000001,0)" xlink:href="#af"/><use transform="matrix(0.008072916666666667,0,0,0.008072916666666667,15.41119791666667,0)" xlink:href="#aD"/><use transform="matrix(0.008072916666666667,0,0,0.008072916666666667,25.542708333333337,0)" xlink:href="#ab"/><use transform="matrix(0.008072916666666667,0,0,0.008072916666666667,35.327083333333334,0)" xlink:href="#ai"/></g><path d="M87 0l247-1490h190L304-167h690L967 0H87" id="aE"/><g id="p"><use transform="matrix(0.008072916666666667,0,0,0.008072916666666667,0,0)" xlink:href="#aE"/><use transform="matrix(0.008072916666666667,0,0,0.008072916666666667,9.348437500000001,0)" xlink:href="#ae"/><use transform="matrix(0.008072916666666667,0,0,0.008072916666666667,19.270052083333333,0)" xlink:href="#ak"/><use transform="matrix(0.008072916666666667,0,0,0.008072916666666667,29.409635416666667,0)" xlink:href="#U"/><use transform="matrix(0.008072916666666667,0,0,0.008072916666666667,33.421875,0)" xlink:href="#Y"/></g><path d="M704 20c-350 0-565-226-565-596 0-472 299-934 785-934 321 0 536 199 542 487h-196c-29-191-147-311-353-311-367 0-594 381-594 748 0 281 158 430 388 430 253 0 457-169 507-427H831l28-166h572l-28 169c-61 368-346 600-699 600" id="aF"/><path d="M528 24C258 24 94-156 94-433c0-354 228-699 603-699 222 0 381 120 410 314l-176 39c-14-114-95-192-238-192-272 0-419 288-419 536 0 167 76 298 258 298 155 0 277-90 329-211l166 58C935-93 745 24 528 24" id="aG"/><g id="q"><use transform="matrix(0.008072916666666667,0,0,0.008072916666666667,0,0)" xlink:href="#aF"/><use transform="matrix(0.008072916666666667,0,0,0.008072916666666667,12.32734375,0)" xlink:href="#Z"/><use transform="matrix(0.008072916666666667,0,0,0.008072916666666667,21.845312500000002,0)" xlink:href="#ad"/><use transform="matrix(0.008072916666666667,0,0,0.008072916666666667,27.803125000000005,0)" xlink:href="#Z"/><use transform="matrix(0.008072916666666667,0,0,0.008072916666666667,37.32109375,0)" xlink:href="#Y"/><use transform="matrix(0.008072916666666667,0,0,0.008072916666666667,47.09739583333334,0)" xlink:href="#aG"/><use transform="matrix(0.008072916666666667,0,0,0.008072916666666667,56.55078125000001,0)" xlink:href="#U"/><use transform="matrix(0.008072916666666667,0,0,0.008072916666666667,60.56302083333334,0)" xlink:href="#X"/><use transform="matrix(0.008072916666666667,0,0,0.008072916666666667,70.71067708333334,0)" xlink:href="#ad"/></g><g id="r"><use transform="matrix(0.008072916666666667,0,0,0.008072916666666667,0,0)" xlink:href="#aC"/><use transform="matrix(0.008072916666666667,0,0,0.008072916666666667,12.069010416666668,0)" xlink:href="#ae"/><use transform="matrix(0.008072916666666667,0,0,0.008072916666666667,21.990625,0)" xlink:href="#Y"/><use transform="matrix(0.008072916666666667,0,0,0.008072916666666667,31.766927083333336,0)" xlink:href="#W"/><use transform="matrix(0.008072916666666667,0,0,0.008072916666666667,37.030468750000004,0)" xlink:href="#X"/></g><path d="M87 0l247-1490h270l211 940c16 74 39 220 54 339 57-123 125-267 165-339l519-940h271L1577 0h-187c75-441 134-849 220-1287C1371-790 1163-459 914 0H749C649-458 553-779 473-1282 408-826 339-440 268 0H87" id="aH"/><path d="M356-670L245 0H65l247-1490h180l-94 565c97-150 219-207 362-207 226 0 365 139 318 422L960 0H779l116-695c29-174-53-275-208-275-158 0-299 107-331 300" id="aI"/><g id="s"><use transform="matrix(0.008072916666666667,0,0,0.008072916666666667,0,0)" xlink:href="#aH"/><use transform="matrix(0.008072916666666667,0,0,0.008072916666666667,14.934895833333336,0)" xlink:href="#U"/><use transform="matrix(0.008072916666666667,0,0,0.008072916666666667,18.94713541666667,0)" xlink:href="#Y"/><use transform="matrix(0.008072916666666667,0,0,0.008072916666666667,28.723437500000003,0)" xlink:href="#aI"/><use transform="matrix(0.008072916666666667,0,0,0.008072916666666667,38.49973958333334,0)" xlink:href="#X"/></g><path d="M340 418l17-105h118c73 0 101-17 109-65s-11-66-87-66h-82l48-162C232-7 94-179 94-433c0-354 228-699 603-699 222 0 381 120 410 314l-176 39c-14-114-95-192-238-192-272 0-419 288-419 536 0 167 76 298 258 298 155 0 277-90 329-211l166 58C940-105 767 10 566 23l-10 63c126 5 179 52 162 159-19 119-95 173-259 173H340" id="aJ"/><path d="M481 24C202 24 45-202 104-557s293-575 571-575c216 0 263 132 291 193h15l29-179h181L1006 0H831l28-173h-21C788-107 693 24 481 24zm56-161c204 0 342-174 383-422s-41-412-245-412c-215 0-350 183-388 412-39 235 39 422 250 422zm347-1176c-99 0-179-83-229-83-37 0-59 42-67 79H462c25-123 92-208 197-208 104 0 160 85 227 85 34 0 53-25 69-81h123c-25 129-98 208-194 208" id="aK"/><g id="t"><use transform="matrix(0.008072916666666667,0,0,0.008072916666666667,0,0)" xlink:href="#aC"/><use transform="matrix(0.008072916666666667,0,0,0.008072916666666667,12.069010416666668,0)" xlink:href="#ae"/><use transform="matrix(0.008072916666666667,0,0,0.008072916666666667,21.990625,0)" xlink:href="#af"/><use transform="matrix(0.008072916666666667,0,0,0.008072916666666667,25.994791666666668,0)" xlink:href="#Z"/><use transform="matrix(0.008072916666666667,0,0,0.008072916666666667,35.512760416666666,0)" xlink:href="#aJ"/><use transform="matrix(0.008072916666666667,0,0,0.008072916666666667,45.12760416666667,0)" xlink:href="#aK"/><use transform="matrix(0.008072916666666667,0,0,0.008072916666666667,55.275260416666676,0)" xlink:href="#ae"/></g><g id="u"><use transform="matrix(0.008072916666666667,0,0,0.008072916666666667,0,0)" xlink:href="#az"/><use transform="matrix(0.008072916666666667,0,0,0.008072916666666667,11.407031250000001,0)" xlink:href="#aD"/><use transform="matrix(0.008072916666666667,0,0,0.008072916666666667,21.538541666666667,0)" xlink:href="#ad"/><use transform="matrix(0.008072916666666667,0,0,0.008072916666666667,28.02916666666667,0)" xlink:href="#U"/><use transform="matrix(0.008072916666666667,0,0,0.008072916666666667,32.04140625,0)" xlink:href="#ad"/></g><path d="M87 0l247-1490h510c346 0 473 206 430 472s-238 479-586 479H366L277 0H87zm307-706h312c241 0 351-138 379-311s-39-306-279-306H496" id="aL"/><g id="v"><use transform="matrix(0.008072916666666667,0,0,0.008072916666666667,0,0)" xlink:href="#aL"/><use transform="matrix(0.008072916666666667,0,0,0.008072916666666667,10.470572916666669,0)" xlink:href="#X"/><use transform="matrix(0.008072916666666667,0,0,0.008072916666666667,20.61822916666667,0)" xlink:href="#aG"/><use transform="matrix(0.008072916666666667,0,0,0.008072916666666667,30.071614583333336,0)" xlink:href="#ae"/><use transform="matrix(0.008072916666666667,0,0,0.008072916666666667,39.993229166666666,0)" xlink:href="#W"/><use transform="matrix(0.008072916666666667,0,0,0.008072916666666667,45.25677083333334,0)" xlink:href="#Z"/></g><path d="M585 0H87l247-1490h460c436 0 670 281 593 744C1309-277 1035 0 585 0zM305-168h262c366 0 577-221 636-580s-82-574-426-574H496" id="aM"/><g id="w"><use transform="matrix(0.008072916666666667,0,0,0.008072916666666667,0,0)" xlink:href="#aM"/><use transform="matrix(0.008072916666666667,0,0,0.008072916666666667,11.923697916666669,0)" xlink:href="#U"/><use transform="matrix(0.008072916666666667,0,0,0.008072916666666667,15.935937500000001,0)" xlink:href="#ac"/><use transform="matrix(0.008072916666666667,0,0,0.008072916666666667,26.083593750000002,0)" xlink:href="#ad"/><use transform="matrix(0.008072916666666667,0,0,0.008072916666666667,32.57421875,0)" xlink:href="#U"/><use transform="matrix(0.008072916666666667,0,0,0.008072916666666667,36.58645833333333,0)" xlink:href="#ae"/></g><path d="M226-1323l28-167h1126l-28 167H885L666 0H476l219-1323H226" id="aN"/><g id="x"><use transform="matrix(0.008072916666666667,0,0,0.008072916666666667,0,0)" xlink:href="#aN"/><use transform="matrix(0.008072916666666667,0,0,0.008072916666666667,9.752083333333335,0)" xlink:href="#ad"/><use transform="matrix(0.008072916666666667,0,0,0.008072916666666667,15.709895833333334,0)" xlink:href="#ae"/><use transform="matrix(0.008072916666666667,0,0,0.008072916666666667,25.631510416666668,0)" xlink:href="#aG"/><use transform="matrix(0.008072916666666667,0,0,0.008072916666666667,35.084895833333334,0)" xlink:href="#X"/><use transform="matrix(0.008072916666666667,0,0,0.008072916666666667,45.23255208333333,0)" xlink:href="#ad"/></g><path d="M87 0l247-1490h901l-28 167H496l-85 512h643l-27 167H384L277 0H87" id="aO"/><g id="y"><use transform="matrix(0.008072916666666667,0,0,0.008072916666666667,0,0)" xlink:href="#aO"/><use transform="matrix(0.008072916666666667,0,0,0.008072916666666667,9.760156250000001,0)" xlink:href="#U"/><use transform="matrix(0.008072916666666667,0,0,0.008072916666666667,13.772395833333334,0)" xlink:href="#ak"/><use transform="matrix(0.008072916666666667,0,0,0.008072916666666667,23.91197916666667,0)" xlink:href="#ab"/><use transform="matrix(0.008072916666666667,0,0,0.008072916666666667,33.696354166666666,0)" xlink:href="#ad"/><use transform="matrix(0.008072916666666667,0,0,0.008072916666666667,40.186979166666674,0)" xlink:href="#U"/><use transform="matrix(0.008072916666666667,0,0,0.008072916666666667,44.19921875,0)" xlink:href="#Y"/><use transform="matrix(0.008072916666666667,0,0,0.008072916666666667,53.975520833333334,0)" xlink:href="#aI"/><use transform="matrix(0.008072916666666667,0,0,0.008072916666666667,63.75182291666667,0)" xlink:href="#X"/></g><g id="z"><use transform="matrix(0.008072916666666667,0,0,0.008072916666666667,0,0)" xlink:href="#aj"/><use transform="matrix(0.008072916666666667,0,0,0.008072916666666667,10.131510416666668,0)" xlink:href="#ae"/><use transform="matrix(0.008072916666666667,0,0,0.008072916666666667,20.053125,0)" xlink:href="#ad"/></g><path d="M87 0l247-1490h522c311 0 433 182 398 403-29 183-158 272-300 309v10c139 9 280 144 242 380C1160-164 988 0 639 0H87zm218-167h345c236 0 346-113 367-247 23-147-78-262-262-262H390zm111-669h323c157 0 307-105 334-265 21-124-42-222-237-222H497" id="aP"/><path d="M528 24C258 24 94-156 94-433c0-355 229-699 603-699 270 0 436 178 436 458 0 359-234 698-605 698zm4-161c275 0 420-287 420-533 0-170-77-301-260-301-271 0-418 288-418 536 0 168 77 298 258 298zm57-1145H412l2-9 279-267h171l192 267-2 9H875l-112-175" id="aQ"/><g id="A"><use transform="matrix(0.008072916666666667,0,0,0.008072916666666667,0,0)" xlink:href="#aP"/><use transform="matrix(0.008072916666666667,0,0,0.008072916666666667,10.817708333333334,0)" xlink:href="#aQ"/><use transform="matrix(0.008072916666666667,0,0,0.008072916666666667,20.739322916666666,0)" xlink:href="#Y"/><use transform="matrix(0.008072916666666667,0,0,0.008072916666666667,30.515625,0)" xlink:href="#ab"/><use transform="matrix(0.008072916666666667,0,0,0.008072916666666667,40.3,0)" xlink:href="#V"/></g><path d="M458 20C225 20 70-106 70-332c0-30 3-61 21-174h190c-17 104-19 127-19 149 0 136 82 210 215 210 149 0 269-93 300-279l177-1064h190L967-426C920-143 723 20 458 20" id="aR"/><g id="B"><use transform="matrix(0.008072916666666667,0,0,0.008072916666666667,0,0)" xlink:href="#aR"/><use transform="matrix(0.008072916666666667,0,0,0.008072916666666667,9.437239583333334,0)" xlink:href="#ae"/><use transform="matrix(0.008072916666666667,0,0,0.008072916666666667,19.358854166666667,0)" xlink:href="#ak"/><use transform="matrix(0.008072916666666667,0,0,0.008072916666666667,29.4984375,0)" xlink:href="#X"/><use transform="matrix(0.008072916666666667,0,0,0.008072916666666667,39.646093750000006,0)" xlink:href="#ad"/></g><g id="C"><use transform="matrix(0.008072916666666667,0,0,0.008072916666666667,0,0)" xlink:href="#aH"/><use transform="matrix(0.008072916666666667,0,0,0.008072916666666667,14.934895833333336,0)" xlink:href="#U"/><use transform="matrix(0.008072916666666667,0,0,0.008072916666666667,18.94713541666667,0)" xlink:href="#Y"/><use transform="matrix(0.008072916666666667,0,0,0.008072916666666667,28.723437500000003,0)" xlink:href="#U"/><use transform="matrix(0.008072916666666667,0,0,0.008072916666666667,32.735677083333336,0)" xlink:href="#ak"/><use transform="matrix(0.008072916666666667,0,0,0.008072916666666667,42.87526041666667,0)" xlink:href="#X"/><use transform="matrix(0.008072916666666667,0,0,0.008072916666666667,53.022916666666674,0)" xlink:href="#ai"/><use transform="matrix(0.008072916666666667,0,0,0.008072916666666667,67.50572916666667,0)" xlink:href="#Z"/></g><g id="D"><use transform="matrix(0.008072916666666667,0,0,0.008072916666666667,0,0)" xlink:href="#aC"/><use transform="matrix(0.008072916666666667,0,0,0.008072916666666667,12.069010416666668,0)" xlink:href="#ae"/><use transform="matrix(0.008072916666666667,0,0,0.008072916666666667,21.990625,0)" xlink:href="#Y"/><use transform="matrix(0.008072916666666667,0,0,0.008072916666666667,31.766927083333336,0)" xlink:href="#W"/><use transform="matrix(0.008072916666666667,0,0,0.008072916666666667,37.19192708333334,0)" xlink:href="#ad"/><use transform="matrix(0.008072916666666667,0,0,0.008072916666666667,43.68255208333335,0)" xlink:href="#U"/><use transform="matrix(0.008072916666666667,0,0,0.008072916666666667,47.694791666666674,0)" xlink:href="#aD"/><use transform="matrix(0.008072916666666667,0,0,0.008072916666666667,57.826302083333346,0)" xlink:href="#ab"/><use transform="matrix(0.008072916666666667,0,0,0.008072916666666667,67.61067708333334,0)" xlink:href="#U"/><use transform="matrix(0.008072916666666667,0,0,0.008072916666666667,71.62291666666668,0)" xlink:href="#ad"/></g><g id="E"><use transform="matrix(0.008072916666666667,0,0,0.008072916666666667,0,0)" xlink:href="#aG"/><use transform="matrix(0.008072916666666667,0,0,0.008072916666666667,9.453385416666668,0)" xlink:href="#ae"/><use transform="matrix(0.008072916666666667,0,0,0.008072916666666667,19.375,0)" xlink:href="#ai"/></g><path d="M87 0l247-1490h218l448 953c25 54 80 176 129 327 11-149 33-280 47-366l151-914h190L1270 0h-219C841-464 670-765 473-1275 414-753 352-475 278 0H87" id="aS"/><path d="M389 0L147-1118h188c55 314 135 617 168 951 141-329 323-637 482-951h205L578 0H389" id="aT"/><g id="F"><use transform="matrix(0.008072916666666667,0,0,0.008072916666666667,0,0)" xlink:href="#aS"/><use transform="matrix(0.008072916666666667,0,0,0.008072916666666667,12.456510416666667,0)" xlink:href="#ae"/><use transform="matrix(0.008072916666666667,0,0,0.008072916666666667,22.055208333333333,0)" xlink:href="#aT"/><use transform="matrix(0.008072916666666667,0,0,0.008072916666666667,31.02421875,0)" xlink:href="#ae"/></g><g id="G"><use transform="matrix(0.008072916666666667,0,0,0.008072916666666667,0,0)" xlink:href="#aL"/><use transform="matrix(0.008072916666666667,0,0,0.008072916666666667,10.470572916666669,0)" xlink:href="#Z"/><use transform="matrix(0.008072916666666667,0,0,0.008072916666666667,19.98854166666667,0)" xlink:href="#ad"/><use transform="matrix(0.008072916666666667,0,0,0.008072916666666667,26.22083333333334,0)" xlink:href="#V"/><use transform="matrix(0.008072916666666667,0,0,0.008072916666666667,34.93958333333334,0)" xlink:href="#ae"/><use transform="matrix(0.008072916666666667,0,0,0.008072916666666667,44.86119791666667,0)" xlink:href="#Y"/><use transform="matrix(0.008072916666666667,0,0,0.008072916666666667,54.6375,0)" xlink:href="#X"/><use transform="matrix(0.008072916666666667,0,0,0.008072916666666667,64.78515625,0)" xlink:href="#ak"/><use transform="matrix(0.008072916666666667,0,0,0.008072916666666667,74.92473958333333,0)" xlink:href="#Z"/><use transform="matrix(0.008072916666666667,0,0,0.008072916666666667,84.44270833333334,0)" xlink:href="#ai"/></g><path fill="#333" d="M168-520l22-126 1020-476-30 196-770 340-1 10 657 338-33 194" id="aU"/><path fill="#333" d="M535 24C259 24 94-144 94-427c0-392 272-715 610-715 216 0 356 119 356 305 0 244-237 344-790 350-18 199 49 349 276 352 142 0 260-66 317-173l167 47C947-85 756 24 535 24zM294-623c447-4 586-57 586-218 0-85-78-141-194-141-220 0-342 177-392 359" id="aV"/><path fill="#333" d="M-28 0l489-573-281-545h202c65 135 144 295 195 434 91-140 226-300 336-434h214L662-564 960 0H756c-70-143-156-309-211-458C447-309 301-142 185 0H-28" id="aW"/><path fill="#333" d="M691-1118l-25 154H437L325-290c-17 103 16 144 108 144 23 0 63-6 94-12L538-6c-36 12-87 20-136 20-196 0-290-109-260-290l114-688H88l25-154h169l44-266h180l-44 266h229" id="aX"/><path fill="#333" d="M356-664L245 0H65l186-1118h173l-32 197c96-152 219-211 366-211 232 0 366 145 319 428L960 0H779l117-701c29-174-48-269-198-269-165 0-310 115-342 306" id="aY"/><path fill="#333" d="M492 24C248 24 94-147 94-425c0-352 212-707 569-707 222 0 274 136 303 198h12l92-556h181L1004 0H829l30-173h-19C792-103 700 24 492 24zm32-161c268 0 407-295 407-549 0-175-80-285-247-285-266 0-408 283-408 536 0 174 79 298 248 298" id="aZ"/><path fill="#333" d="M1173-520L153-44l33-194 767-339v-11L301-926l29-196 865 476" id="ba"/><g id="H"><use transform="matrix(0.008072916666666667,0,0,0.008072916666666667,0,0)" xlink:href="#aU"/><use transform="matrix(0.008072916666666667,0,0,0.008072916666666667,10.946875,0)" xlink:href="#aU"/><use transform="matrix(0.008072916666666667,0,0,0.008072916666666667,21.89375,0)" xlink:href="#aV"/><use transform="matrix(0.008072916666666667,0,0,0.008072916666666667,31.040364583333336,0)" xlink:href="#aW"/><use transform="matrix(0.008072916666666667,0,0,0.008072916666666667,40.38880208333334,0)" xlink:href="#aX"/><use transform="matrix(0.008072916666666667,0,0,0.008072916666666667,45.65234375,0)" xlink:href="#aV"/><use transform="matrix(0.008072916666666667,0,0,0.008072916666666667,55.1703125,0)" xlink:href="#aY"/><use transform="matrix(0.008072916666666667,0,0,0.008072916666666667,64.94661458333334,0)" xlink:href="#aZ"/><use transform="matrix(0.008072916666666667,0,0,0.008072916666666667,75.07812500000001,0)" xlink:href="#ba"/><use transform="matrix(0.008072916666666667,0,0,0.008072916666666667,86.02500000000002,0)" xlink:href="#ba"/></g><path d="M780-1118l-24 146H497L317 116C281 334 148 448-56 448c-43 0-82-5-117-17l45-161c143 34 239 0 264-153L316-972H89l24-146h227l13-77c43-287 254-417 541-345l-50 154c-23-5-81-8-121-8-107 0-167 63-189 196l-13 80h259" id="bb"/><g id="I"><use transform="matrix(0.008072916666666667,0,0,0.008072916666666667,0,0)" xlink:href="#aL"/><use transform="matrix(0.008072916666666667,0,0,0.008072916666666667,10.470572916666669,0)" xlink:href="#Z"/><use transform="matrix(0.008072916666666667,0,0,0.008072916666666667,19.98854166666667,0)" xlink:href="#ad"/><use transform="matrix(0.008072916666666667,0,0,0.008072916666666667,26.47916666666667,0)" xlink:href="#bb"/><use transform="matrix(0.008072916666666667,0,0,0.008072916666666667,32.64687500000001,0)" xlink:href="#U"/><use transform="matrix(0.008072916666666667,0,0,0.008072916666666667,36.65911458333334,0)" xlink:href="#af"/></g><g id="J"><use transform="matrix(0.008072916666666667,0,0,0.008072916666666667,0,0)" xlink:href="#ab"/><use transform="matrix(0.008072916666666667,0,0,0.008072916666666667,9.784375,0)" xlink:href="#V"/><use transform="matrix(0.008072916666666667,0,0,0.008072916666666667,18.503125,0)" xlink:href="#ab"/><use transform="matrix(0.008072916666666667,0,0,0.008072916666666667,28.2875,0)" xlink:href="#ac"/><use transform="matrix(0.008072916666666667,0,0,0.008072916666666667,38.435156250000006,0)" xlink:href="#ad"/><use transform="matrix(0.008072916666666667,0,0,0.008072916666666667,44.92578125000001,0)" xlink:href="#U"/><use transform="matrix(0.008072916666666667,0,0,0.008072916666666667,48.93802083333334,0)" xlink:href="#ae"/><use transform="matrix(0.008072916666666667,0,0,0.008072916666666667,58.85963541666668,0)" xlink:href="#V"/></g><g id="K"><use transform="matrix(0.008072916666666667,0,0,0.008072916666666667,0,0)" xlink:href="#az"/><use transform="matrix(0.008072916666666667,0,0,0.008072916666666667,11.407031250000001,0)" xlink:href="#aj"/><use transform="matrix(0.008072916666666667,0,0,0.008072916666666667,21.538541666666667,0)" xlink:href="#ad"/><use transform="matrix(0.008072916666666667,0,0,0.008072916666666667,27.49635416666667,0)" xlink:href="#ae"/><use transform="matrix(0.008072916666666667,0,0,0.008072916666666667,37.095052083333336,0)" xlink:href="#aT"/><use transform="matrix(0.008072916666666667,0,0,0.008072916666666667,46.064062500000006,0)" xlink:href="#X"/><use transform="matrix(0.008072916666666667,0,0,0.008072916666666667,56.21171875,0)" xlink:href="#ad"/></g><g id="L"><use transform="matrix(0.008072916666666667,0,0,0.008072916666666667,0,0)" xlink:href="#aj"/><use transform="matrix(0.008072916666666667,0,0,0.008072916666666667,10.131510416666668,0)" xlink:href="#Z"/><use transform="matrix(0.008072916666666667,0,0,0.008072916666666667,19.64947916666667,0)" xlink:href="#ad"/><use transform="matrix(0.008072916666666667,0,0,0.008072916666666667,25.881770833333338,0)" xlink:href="#V"/><use transform="matrix(0.008072916666666667,0,0,0.008072916666666667,34.600520833333334,0)" xlink:href="#ae"/><use transform="matrix(0.008072916666666667,0,0,0.008072916666666667,44.52213541666667,0)" xlink:href="#Y"/><use transform="matrix(0.008072916666666667,0,0,0.008072916666666667,54.298437500000006,0)" xlink:href="#X"/><use transform="matrix(0.008072916666666667,0,0,0.008072916666666667,64.44609375,0)" xlink:href="#ak"/><use transform="matrix(0.008072916666666667,0,0,0.008072916666666667,74.58567708333334,0)" xlink:href="#Z"/><use transform="matrix(0.008072916666666667,0,0,0.008072916666666667,84.10364583333333,0)" xlink:href="#Y"/><use transform="matrix(0.008072916666666667,0,0,0.008072916666666667,93.87994791666667,0)" xlink:href="#V"/></g><g id="M"><use transform="matrix(0.008072916666666667,0,0,0.008072916666666667,0,0)" xlink:href="#aC"/><use transform="matrix(0.008072916666666667,0,0,0.008072916666666667,12.069010416666668,0)" xlink:href="#X"/><use transform="matrix(0.008072916666666667,0,0,0.008072916666666667,22.21666666666667,0)" xlink:href="#aA"/><use transform="matrix(0.008072916666666667,0,0,0.008072916666666667,32.34817708333334,0)" xlink:href="#X"/><use transform="matrix(0.008072916666666667,0,0,0.008072916666666667,42.49583333333334,0)" xlink:href="#V"/><use transform="matrix(0.008072916666666667,0,0,0.008072916666666667,51.21458333333334,0)" xlink:href="#W"/><use transform="matrix(0.008072916666666667,0,0,0.008072916666666667,56.639583333333334,0)" xlink:href="#ad"/><use transform="matrix(0.008072916666666667,0,0,0.008072916666666667,62.59739583333334,0)" xlink:href="#X"/><use transform="matrix(0.008072916666666667,0,0,0.008072916666666667,72.74505208333333,0)" xlink:href="#ad"/></g></defs></g></svg>